<svg xmlns="http://www.w3.org/2000/svg" width="6300" height="1500" viewBox="0 0 6300 1500" version="1.1"><path d="M 719 106.075 C 692.389 108.077, 684.894 109.205, 682.643 111.548 C 680.517 113.760, 671.569 115.838, 657 117.504 C 650.737 118.220, 635.520 121.205, 623 124.174 C 618.325 125.283, 612.460 126.555, 609.966 127 C 607.472 127.446, 602.072 128.769, 597.966 129.939 C 576.555 136.040, 572.170 137.344, 568.500 138.697 C 566.300 139.508, 562.250 140.785, 559.500 141.535 C 552.325 143.490, 540.999 147.537, 537.500 149.395 C 535.850 150.271, 533.963 150.990, 533.306 150.994 C 532.649 150.997, 528.149 152.630, 523.306 154.621 C 518.463 156.613, 512.289 159.114, 509.586 160.179 C 506.883 161.245, 503.745 162.765, 502.613 163.558 C 501.481 164.351, 500.026 165, 499.380 165 C 497.005 165, 457.029 185.266, 443.500 193.328 C 439.650 195.623, 436.050 197.663, 435.500 197.861 C 434.950 198.060, 432.813 199.297, 430.750 200.611 C 428.688 201.925, 425.313 204.052, 423.250 205.337 C 416.541 209.519, 395.591 223.404, 392 226.048 C 351.917 255.568, 331.574 273.002, 301.686 303.447 C 280.666 324.860, 251.664 359.387, 237.804 379.500 C 227.916 393.850, 219.156 407.035, 214.883 414 C 203.414 432.692, 194.255 449.193, 185.463 467 C 177.574 482.980, 175.471 487.592, 169.387 502.250 C 163.120 517.347, 161.701 520.890, 159.870 526 C 158.786 529.025, 156.765 534.650, 155.378 538.500 C 153.991 542.350, 152.035 548.200, 151.032 551.500 C 150.029 554.800, 148.729 558.850, 148.143 560.500 C 142.205 577.230, 130.569 627.134, 127.976 647 C 127.365 651.675, 126.445 657.406, 125.932 659.736 C 125.418 662.067, 124.328 671.517, 123.510 680.736 C 122.692 689.956, 121.455 702.450, 120.761 708.500 C 119.105 722.940, 119.146 787.013, 120.822 804.500 C 122.915 826.333, 124.906 841.091, 126.962 850 C 128.041 854.675, 129.882 863.450, 131.055 869.500 C 134.383 886.676, 138.012 902.899, 140.095 909.918 C 141.143 913.449, 141.998 916.824, 141.996 917.418 C 141.991 918.527, 144.966 928.570, 150.019 944.500 C 154.486 958.584, 164.147 985.181, 167.454 992.500 C 168.200 994.150, 170.026 998.425, 171.513 1002 C 191.777 1050.728, 223.832 1103.806, 260.850 1149.927 C 297.586 1195.698, 346.356 1241.553, 392 1273.239 C 406.541 1283.333, 430.962 1299.049, 438.189 1302.962 C 439.750 1303.808, 445.409 1307.011, 450.764 1310.079 C 461.645 1316.315, 493.486 1332.093, 505 1336.955 C 509.125 1338.697, 515.031 1341.220, 518.125 1342.561 C 521.219 1343.902, 524.076 1345, 524.474 1345 C 524.872 1345, 526.616 1345.657, 528.349 1346.459 C 532.337 1348.306, 544.116 1352.697, 550 1354.531 C 552.475 1355.302, 557.875 1357.099, 562 1358.524 C 571.693 1361.872, 587.995 1366.791, 595 1368.481 C 603.218 1370.463, 616.967 1373.858, 621.500 1375.025 C 625.393 1376.027, 646.417 1380.019, 658.500 1382.050 C 662.335 1382.695, 665.105 1383.778, 666.177 1385.050 C 667.182 1386.244, 669.985 1387.417, 673.177 1387.980 C 680.813 1389.327, 704.193 1391.796, 720.500 1392.978 C 737.065 1394.178, 789.680 1394.231, 805.904 1393.064 C 816.078 1392.333, 817.492 1391.999, 819.020 1389.973 C 820.520 1387.985, 822.002 1387.603, 830.906 1386.914 C 836.500 1386.480, 843.423 1385.657, 846.289 1385.083 C 849.155 1384.510, 855.550 1383.564, 860.500 1382.980 C 872.099 1381.613, 902.048 1375.774, 917.500 1371.867 C 934.525 1367.562, 935.434 1367.302, 962.500 1358.987 C 972.024 1356.061, 978.156 1353.979, 983 1352.027 C 985.475 1351.030, 990.875 1348.970, 995 1347.451 C 999.125 1345.932, 1004.835 1343.634, 1007.688 1342.345 C 1010.542 1341.055, 1013.157 1340, 1013.500 1340 C 1014.074 1340, 1017.074 1338.697, 1030.331 1332.689 C 1035.445 1330.372, 1065.394 1315.392, 1073 1311.347 C 1086.580 1304.126, 1107.387 1291.299, 1123.040 1280.500 C 1127.027 1277.750, 1131.704 1274.600, 1133.434 1273.500 C 1136.453 1271.581, 1153.706 1258.670, 1161 1252.872 C 1191.940 1228.276, 1214.865 1206.635, 1245.612 1173 C 1266.349 1150.314, 1300.350 1104.091, 1314.787 1078.958 C 1327.988 1055.977, 1333.660 1045.451, 1342.081 1028.312 C 1347.537 1017.208, 1352 1007.845, 1352 1007.506 C 1352 1007.166, 1353.946 1002.301, 1356.325 996.694 C 1364.068 978.443, 1369.692 963.295, 1374.964 946.500 C 1380.537 928.741, 1382.253 922.991, 1383.468 918 C 1385.867 908.147, 1389.023 895.618, 1390.522 890 C 1391.328 886.975, 1392.460 881.575, 1393.037 878 C 1393.613 874.425, 1394.719 868.575, 1395.494 865 C 1397.179 857.222, 1399.809 839.120, 1401.159 826 C 1401.722 820.531, 1402.913 815.007, 1403.965 812.982 C 1406.963 807.211, 1408.375 778.373, 1407.666 737.359 C 1407.002 698.922, 1406.012 685.776, 1403.578 683.086 C 1402.710 682.127, 1401.997 680.253, 1401.993 678.921 C 1401.989 677.590, 1401.317 672.225, 1400.499 667 C 1399.681 661.775, 1398.548 653.900, 1397.981 649.500 C 1396.892 641.042, 1393.852 624.846, 1391.317 614 C 1390.481 610.425, 1388.989 603.900, 1388.002 599.500 C 1387.014 595.100, 1385.022 587.225, 1383.575 582 C 1382.127 576.775, 1380.334 570.250, 1379.589 567.500 C 1378.037 561.768, 1369.253 535.653, 1365.630 526 C 1359.528 509.742, 1355.094 499.164, 1347.609 483 C 1337.258 460.650, 1326.935 440.811, 1317.751 425.620 C 1285.030 371.499, 1252.922 331.177, 1207.349 286.979 C 1201.382 281.192, 1192.900 273.376, 1188.500 269.610 C 1184.100 265.844, 1178.250 260.827, 1175.500 258.460 C 1169.067 252.925, 1149.888 237.824, 1141.786 231.915 C 1135.070 227.017, 1108.815 209.353, 1103 205.821 C 1101.075 204.652, 1098.375 202.936, 1097 202.007 C 1094.275 200.166, 1083.799 194.203, 1070.183 186.741 C 1058.797 180.502, 1031.486 167.102, 1022 163.101 C 1017.875 161.361, 1013.150 159.303, 1011.500 158.527 C 1009.850 157.752, 1005.575 156.003, 1002 154.640 C 998.425 153.278, 992.574 151.015, 988.998 149.612 C 981.298 146.591, 972.770 143.616, 964.500 141.067 C 961.200 140.049, 957.150 138.729, 955.500 138.133 C 948.930 135.759, 916.961 127, 914.868 127 C 914.026 127, 910.449 126.151, 906.918 125.113 C 899.731 123, 876.540 118.549, 864.819 117.033 C 860.594 116.486, 855.061 115.574, 852.524 115.005 C 849.987 114.437, 842.644 113.545, 836.206 113.024 C 825.526 112.160, 824.325 111.859, 822.500 109.597 C 820.632 107.282, 819.575 107.048, 806.500 106.063 C 790.668 104.870, 734.909 104.878, 719 106.075 M 1325.667 111.667 C 1325.300 112.033, 1325 130.050, 1325 151.704 L 1325 191.075 1334.250 190.788 L 1343.500 190.500 1343.542 175.749 L 1343.583 160.998 1343.265 175.499 L 1342.947 190 1334.473 190 L 1326 190 1326 151.022 L 1326 112.044 1344.750 111.749 L 1363.500 111.453 1344.917 111.227 C 1334.696 111.102, 1326.033 111.300, 1325.667 111.667 M 1096.315 285.007 C 1091.844 286.809, 1090.534 293.967, 1093.912 298.139 C 1095.575 300.194, 1096.690 300.500, 1102.500 300.500 C 1108.310 300.500, 1109.425 300.194, 1111.088 298.139 C 1113.775 294.821, 1113.543 289.878, 1110.548 286.646 C 1108.529 284.468, 1107.247 284.011, 1103.298 284.063 C 1100.659 284.098, 1097.517 284.523, 1096.315 285.007 M 1133.041 286.805 C 1128.088 291.759, 1129.273 297.632, 1135.720 300.084 C 1137.046 300.588, 1143.007 301, 1148.968 301 C 1159.873 301, 1177.879 303.825, 1180.421 305.934 C 1181.109 306.506, 1183.437 307.596, 1185.594 308.357 C 1193.725 311.226, 1207.613 322.618, 1214.627 332.173 C 1218.631 337.627, 1225 349.512, 1225 351.529 C 1225 353.076, 1231.591 359, 1233.312 359 C 1235.500 359, 1238.687 356.170, 1239.959 353.099 C 1240.939 350.732, 1240.939 349.333, 1239.955 346.309 C 1236.559 335.867, 1227.236 321.428, 1217.621 311.720 C 1210.596 304.626, 1198.676 295.932, 1193.237 293.936 C 1191.732 293.384, 1188.700 292.079, 1186.500 291.037 C 1176.948 286.512, 1168 284.764, 1151.791 284.256 L 1136.083 283.763 1133.041 286.805 M 938 327.017 C 919.120 329.147, 902.624 343.462, 895.857 363.586 C 893.667 370.099, 893.502 372.385, 893.016 403 L 892.500 435.500 876 436.025 C 859.880 436.538, 859.359 436.623, 853.364 439.732 C 846.432 443.327, 839.627 450.631, 835.881 458.500 L 833.500 463.500 833 605 C 832.508 744.121, 832.466 746.562, 830.500 750.173 C 828.102 754.576, 821.550 759.997, 818.612 760.008 C 768.290 760.199, 761.804 760.082, 760.455 758.963 C 759.217 757.935, 759 750.290, 759 707.693 C 759 664.254, 758.782 656.855, 757.353 651.762 C 756.081 647.229, 755.977 645.623, 756.895 644.705 C 757.725 643.875, 761.934 643.614, 770.852 643.841 C 790.726 644.347, 798.102 641.388, 804.663 630.279 C 807.043 626.250, 807.141 625.446, 806.828 612.623 C 806.504 599.371, 806.457 599.129, 803.354 594.844 C 801.623 592.455, 798.023 589.150, 795.354 587.500 L 790.500 584.500 768.862 584.181 C 755.443 583.984, 745.698 584.273, 743.205 584.945 C 738.059 586.331, 729.491 593.981, 727.989 598.533 C 725.857 604.993, 722.782 602.600, 719.968 592.290 C 718.949 588.555, 716.932 581.675, 715.487 577 C 714.041 572.325, 712.231 566.025, 711.465 563 C 710.698 559.975, 709.411 555.925, 708.605 554 C 707.799 552.075, 705.716 545.550, 703.977 539.500 C 702.238 533.450, 700.225 526.700, 699.504 524.500 C 698.783 522.300, 696.948 516.450, 695.427 511.500 C 693.907 506.550, 691.302 500.061, 689.640 497.081 C 683.332 485.769, 670.588 476.136, 659.122 474.013 C 651.626 472.626, 378.537 472.571, 371.234 473.956 C 360.065 476.074, 349.454 483.472, 342.661 493.876 C 337.918 501.142, 336.699 504.178, 331.973 520.500 C 330.221 526.550, 327.977 533.975, 326.985 537 C 325.994 540.025, 323.751 547.225, 322 553 C 320.249 558.775, 318.011 565.975, 317.026 569 C 314.054 578.129, 310.107 591.247, 309.026 595.591 C 308.466 597.841, 307.142 600.466, 306.084 601.424 C 304.248 603.086, 304.109 603.073, 303.080 601.149 C 302.486 600.039, 301.983 598.539, 301.962 597.816 C 301.894 595.428, 295.584 589.181, 290.601 586.568 C 285.790 584.046, 285.326 584, 264.601 584.006 C 252.995 584.009, 241.849 584.470, 239.831 585.030 C 237.812 585.591, 233.907 588.076, 231.153 590.553 C 224.435 596.592, 222.490 601.773, 222.534 613.500 C 222.580 625.479, 224.051 630.027, 229.805 635.970 C 236.364 642.746, 241.884 644.240, 259.019 643.877 C 274.338 643.552, 275.109 643.904, 273.002 650.255 C 271.857 653.704, 271.528 667.902, 271.243 726 C 270.926 790.488, 271.058 798.236, 272.592 805 C 274.614 813.922, 277.397 819.792, 282.916 826.775 C 287.486 832.556, 296.462 839.597, 301.302 841.198 C 306.884 843.044, 307 843.552, 307 866.086 C 307 891.507, 308.276 897.235, 315.406 903.807 C 322.709 910.538, 325.670 911, 361.500 911 C 395.871 911, 400.165 910.428, 406.314 905.029 C 408.121 903.442, 410.815 899.743, 412.300 896.808 C 414.906 891.657, 415.001 890.897, 415.015 874.986 C 415.024 865.919, 415.434 857.863, 415.927 857.084 C 416.686 855.885, 418.566 855.846, 428.162 856.827 C 462.227 860.313, 551.776 860.896, 589 857.875 C 597.525 857.183, 606.750 856.591, 609.500 856.559 L 614.500 856.500 615.014 874.500 C 615.600 895.034, 616.308 897.342, 624.269 904.681 C 630.638 910.551, 633.890 911, 670.012 911 C 705.110 911, 708.214 910.469, 715.242 903.256 C 721.600 896.732, 722 894.747, 722 869.755 C 722 844.241, 721.920 844.524, 730.304 840.537 C 740.385 835.742, 749.163 826.767, 753.812 816.500 C 757.550 808.245, 758.976 801.060, 758.988 790.405 C 758.998 781.905, 759.289 780.049, 760.829 778.655 C 762.438 777.199, 766.011 776.999, 790.579 776.989 C 824.750 776.976, 826.871 776.532, 837.164 767.233 C 839.363 765.246, 842.589 760.893, 844.332 757.560 L 847.500 751.500 848 610 C 848.552 453.894, 848.061 465.014, 854.668 458.864 C 860.282 453.639, 862.807 453, 877.843 453 C 889.635 453, 891.880 453.244, 892.393 454.582 C 892.727 455.452, 893 548.972, 893 662.406 L 893 868.648 895.399 876.574 C 898.513 886.864, 902.039 892.969, 908.916 899.983 C 917.232 908.462, 924.563 912.508, 938 916.034 C 940.020 916.564, 987.439 916.962, 1050.122 916.976 L 1158.745 917 1166.496 914.470 C 1176.708 911.136, 1182.265 907.878, 1189.310 901.095 C 1196.243 894.419, 1200.895 887.010, 1204.123 877.500 L 1206.500 870.500 1206.500 621 L 1206.500 371.500 1204.100 364.500 C 1199.823 352.024, 1193.535 343.298, 1182.929 335.119 C 1177.802 331.166, 1168.566 327.705, 1161 326.903 C 1151.636 325.910, 946.881 326.015, 938 327.017 M 1016.588 445.902 C 1014.975 447.685, 1014.817 450.137, 1014.930 471.686 C 1015.037 492.122, 1015.279 495.669, 1016.634 496.688 C 1017.783 497.553, 1028.392 497.900, 1055.582 497.964 C 1092.132 498.048, 1092.995 498.005, 1095.026 495.974 C 1097.028 493.972, 1097.091 493.059, 1096.801 470.497 C 1096.576 452.969, 1096.174 446.770, 1095.201 445.798 C 1094.192 444.790, 1085.457 444.437, 1056.137 444.216 C 1019.642 443.942, 1018.311 443.999, 1016.588 445.902 M 385.500 506.996 C 380.362 508.352, 374.690 511.831, 369.768 516.647 C 364.795 521.511, 358.990 530.737, 359.014 533.735 C 359.022 534.706, 358.074 538.436, 356.906 542.023 C 354.922 548.121, 354.886 548.790, 356.344 552.280 C 358.150 556.603, 361.819 558.444, 366.775 557.514 C 369.613 556.982, 370.415 556.118, 372.548 551.295 C 373.911 548.214, 375.308 543.850, 375.653 541.597 C 376.608 535.362, 380.610 529.248, 385.369 526.754 C 389.026 524.837, 391.605 524.526, 407.841 524.044 C 425.596 523.517, 426.243 523.425, 428.091 521.139 C 430.390 518.296, 430.566 513.253, 428.471 510.261 C 427.629 509.060, 425.267 507.613, 423.221 507.044 C 418.933 505.854, 389.971 505.817, 385.500 506.996 M 354.750 564.080 C 351.792 565.803, 349.712 571.153, 349.603 577.318 C 349.515 582.329, 349.839 583.444, 351.861 585.085 C 356.305 588.691, 363.037 586.882, 365.883 581.316 C 367.127 578.884, 367.381 568.116, 366.235 566.400 C 364.198 563.349, 358.115 562.120, 354.750 564.080 M 244.738 600.877 C 244.057 601.085, 242.488 602.176, 241.250 603.302 C 239.228 605.141, 239 606.281, 239 614.552 C 239 621.886, 239.335 624.034, 240.651 625.128 C 241.911 626.175, 247.465 626.576, 264.082 626.819 C 285.239 627.129, 285.923 627.077, 288.008 624.992 C 289.198 623.802, 289.897 622.175, 289.577 621.341 C 289.260 620.513, 289 616.955, 289 613.434 C 289 607.841, 288.652 606.653, 286.250 604.041 L 283.500 601.051 264.738 600.776 C 254.419 600.624, 245.419 600.670, 244.738 600.877 M 746.587 601.304 C 742.996 602.502, 741.273 607.377, 741.138 616.720 C 741.035 623.880, 741.268 625.073, 742.944 625.970 C 744.081 626.579, 753.096 627, 764.984 627 C 791.619 627, 792 626.815, 792 613.852 C 792 606.237, 791.094 603.656, 787.804 601.895 C 785.290 600.549, 750.350 600.048, 746.587 601.304 M 292.117 649.631 C 286.960 653.242, 286.999 652.648, 287.012 728.218 C 287.025 803.860, 287.057 804.377, 292.261 812.621 C 299.345 823.843, 310.575 828.971, 332.500 830.995 C 339.100 831.605, 345.850 832.482, 347.500 832.946 C 349.150 833.409, 357.025 834.308, 365 834.944 C 372.975 835.579, 382.200 836.505, 385.500 837 C 394.872 838.408, 414.495 839.907, 438.500 841.049 C 450.600 841.625, 466.350 842.503, 473.500 843.001 C 490.550 844.188, 539.766 844.156, 557.500 842.947 C 565.200 842.422, 584.100 841.313, 599.500 840.482 C 614.900 839.651, 631.325 838.529, 636 837.988 C 640.675 837.447, 649 836.568, 654.500 836.036 C 672.414 834.302, 682.416 833.098, 687 832.126 C 689.475 831.601, 695.775 830.863, 701 830.486 C 712.637 829.646, 723.093 826.700, 728.779 822.660 C 732.989 819.668, 739.015 811.721, 740.968 806.585 C 741.732 804.575, 742.397 709.908, 742.019 656.827 C 742.009 655.356, 740.835 652.769, 739.411 651.077 C 736.462 647.572, 732.813 647.096, 726.352 649.376 C 724.207 650.132, 719.099 651.088, 715 651.500 C 710.901 651.912, 705.951 652.811, 704.001 653.500 C 702.051 654.188, 697.540 655.074, 693.977 655.469 C 690.415 655.863, 681.650 657.229, 674.500 658.503 C 667.350 659.777, 657.450 661.111, 652.500 661.468 C 647.550 661.824, 641.250 662.734, 638.500 663.489 C 635.750 664.245, 627.650 665.147, 620.500 665.496 C 613.350 665.844, 602.775 666.783, 597 667.582 C 567.607 671.651, 464.410 671.928, 437 668.012 C 433.425 667.501, 423.525 666.599, 415 666.006 C 406.475 665.414, 397.475 664.445, 395 663.851 C 392.525 663.258, 384.650 662.172, 377.500 661.438 C 370.350 660.704, 359.550 659.216, 353.500 658.131 C 347.450 657.045, 339.585 655.841, 336.023 655.454 C 332.460 655.067, 327.949 654.188, 325.999 653.500 C 324.049 652.811, 319.129 651.915, 315.067 651.507 C 311.005 651.099, 306.193 650.143, 304.373 649.383 C 299.952 647.535, 294.965 647.636, 292.117 649.631 M 334 709.900 C 327.785 713.854, 324.379 717.790, 323.099 722.500 C 321.682 727.710, 321.684 762.323, 323.102 767.428 C 324.781 773.475, 329.446 778.543, 335.653 781.062 C 340.791 783.147, 342.508 783.264, 367.293 783.208 C 391.587 783.153, 393.839 782.997, 398.148 781.073 C 403.911 778.498, 408.227 773.697, 410.477 767.355 C 411.424 764.685, 412.843 760.925, 413.631 759 C 414.418 757.075, 415.695 753.250, 416.467 750.500 C 417.239 747.750, 418.555 743.700, 419.392 741.500 C 421.363 736.315, 421.482 722.824, 419.589 719.200 C 417.883 715.935, 413.767 712.074, 408.882 709.159 C 405.366 707.061, 404.318 707.001, 371.882 707.019 L 338.500 707.038 334 709.900 M 618.485 709.102 C 612.952 712.021, 609.708 715.292, 607.032 720.650 C 604.332 726.056, 604.584 733.277, 607.760 741.500 C 610.757 749.261, 613.003 756.036, 614.390 761.500 C 617.093 772.151, 622.227 778.734, 630.014 781.537 C 636.807 783.982, 683.876 783.928, 690.735 781.467 C 702.096 777.391, 706 768.018, 706 744.817 C 706 723.778, 703.008 715.340, 693.643 709.969 L 688.500 707.019 655.485 707.009 C 623.855 707, 622.303 707.088, 618.485 709.102 M 451.806 719.040 C 449.251 721.596, 448.868 722.591, 449.407 725.287 C 449.760 727.050, 450.950 729.395, 452.052 730.497 C 454.008 732.453, 455.539 732.506, 517.267 732.772 C 564.528 732.976, 581.207 732.743, 583.362 731.850 C 587.016 730.337, 589.384 725.140, 588.036 721.596 C 585.883 715.932, 586.735 716, 517.973 716 L 454.846 716 451.806 719.040 M 340.014 725.986 C 338.149 727.851, 338 729.292, 338 745.443 C 338 762.335, 338.070 762.936, 340.223 764.443 C 342.088 765.750, 346.394 766, 367 766 C 394.215 766, 395.302 765.770, 396.474 759.749 C 396.822 757.962, 397.704 754.925, 398.433 753 C 399.162 751.075, 401.181 745.099, 402.919 739.720 C 405.716 731.066, 405.930 729.626, 404.777 727.220 L 403.474 724.500 372.751 724.236 C 343.104 723.980, 341.958 724.042, 340.014 725.986 M 623 726 C 620.711 728.289, 620.497 730.203, 622.183 733.316 C 622.834 734.517, 624.154 738.200, 625.118 741.500 C 626.081 744.800, 627.792 750.613, 628.918 754.418 C 632.495 766.498, 631.129 766, 660.651 766 L 685.954 766 687.544 763.574 C 688.874 761.544, 689.082 758.381, 688.817 744.224 C 688.583 731.729, 688.141 726.869, 687.128 725.650 C 685.907 724.183, 682.389 724, 655.378 724 C 626.333 724, 624.912 724.088, 623 726 M 231.750 728.080 C 228.755 729.825, 227 734.597, 227 741 C 227 750.617, 230.420 755.115, 236.560 753.574 C 240.537 752.576, 241.976 749.180, 242.106 740.480 C 242.221 732.840, 242.126 732.502, 239.097 729.795 C 235.729 726.786, 234.474 726.493, 231.750 728.080 M 463.593 766.250 C 459.506 769.902, 459.254 773.408, 462.821 776.975 L 465.846 780 518.812 780 C 568.538 780, 571.916 779.889, 574.026 778.180 C 575.733 776.797, 576.273 775.314, 576.273 772 C 576.273 768.686, 575.733 767.203, 574.026 765.820 C 571.916 764.111, 568.543 764, 518.945 764 L 466.112 764 463.593 766.250 M 232.020 770.284 C 227.765 772.437, 227.030 775.410, 227.023 790.500 C 227.009 820.208, 231.280 836.066, 244.711 856.180 C 249.739 863.708, 260.007 874, 262.492 874 C 266.889 874, 271.720 867.843, 270.453 863.852 C 270.095 862.725, 267.674 859.452, 265.071 856.578 C 248.236 837.989, 241.533 817.564, 242.143 786.713 L 242.380 774.728 239.174 771.864 C 235.528 768.607, 235.394 768.577, 232.020 770.284 M 411.985 1028.250 C 409.377 1029.572, 406.731 1031.918, 405.572 1033.937 C 402.256 1039.709, 403.130 1045.370, 410.518 1066 C 414.162 1076.175, 417.978 1086.975, 418.999 1090 C 429.189 1120.211, 441.488 1153.230, 443.751 1156.452 C 452.411 1168.779, 471.200 1167.330, 478.101 1153.802 C 479.208 1151.632, 486.191 1132.676, 493.618 1111.678 C 501.046 1090.680, 508.615 1069.450, 510.438 1064.500 C 517.599 1045.057, 518.308 1040.100, 514.816 1033.886 C 512.547 1029.850, 506.366 1026, 502.152 1026 C 498.831 1026, 493.797 1028.420, 491.154 1031.287 C 489.497 1033.086, 484.868 1046.112, 475.386 1075.666 C 460.006 1123.598, 461.077 1120.410, 460.543 1119.876 C 460.318 1119.651, 457.153 1110.249, 453.511 1098.983 C 430.006 1026.284, 431.737 1030.693, 425.606 1027.909 C 420.210 1025.458, 417.351 1025.530, 411.985 1028.250 M 571.500 1027.499 C 558.579 1030.386, 550.621 1034.421, 542.245 1042.335 C 529.115 1054.740, 521.999 1073.452, 522.029 1095.500 C 522.074 1129.595, 538.466 1155.522, 564.500 1162.675 C 572.881 1164.978, 588.445 1165.427, 597 1163.613 C 605.873 1161.731, 615.455 1157.112, 621.471 1151.817 C 634.229 1140.586, 640.880 1120.053, 634.720 1110.912 C 633.466 1109.052, 631.328 1106.967, 629.970 1106.279 C 626.404 1104.475, 618.891 1104.695, 615.973 1106.690 C 612.924 1108.773, 612.373 1109.653, 608.311 1118.922 C 602.492 1132.202, 595.357 1137.405, 583 1137.380 C 571.166 1137.355, 563.308 1132.612, 558.650 1122.682 C 554.695 1114.250, 553.702 1107.644, 554.251 1093.410 C 554.871 1077.346, 557.050 1070.385, 563.817 1062.858 C 569.852 1056.147, 574.547 1054.044, 583.500 1054.044 C 595.349 1054.044, 600.249 1057.391, 608.204 1070.917 C 613.324 1079.622, 616.191 1082.047, 622.136 1082.698 C 625.586 1083.076, 627.233 1082.682, 630 1080.818 C 639.041 1074.727, 639.214 1062.695, 630.452 1049.494 C 618.974 1032.202, 593.311 1022.627, 571.500 1027.499 M 740.500 1027.965 C 727.555 1030.764, 716.797 1036.478, 708.716 1044.849 C 696.622 1057.376, 691.007 1073.461, 691.003 1095.590 C 690.998 1119.967, 698.335 1138.142, 713.232 1150.657 C 731.238 1165.784, 761.453 1169.235, 787.500 1159.139 C 799.022 1154.673, 807.819 1149.196, 810.891 1144.574 C 813.404 1140.794, 813.513 1140.019, 813.856 1123.585 C 814.278 1103.324, 813.276 1097.252, 808.905 1093.574 C 804.319 1089.714, 799.917 1089.010, 780.500 1089.028 C 765.140 1089.042, 761.902 1089.315, 758.424 1090.895 C 751.348 1094.109, 749.067 1102.874, 753.532 1109.689 C 756.192 1113.750, 760.778 1115, 773.008 1115 L 784.081 1115 783.790 1123.227 L 783.500 1131.455 776 1134.396 C 765.598 1138.476, 752.107 1139.169, 743.823 1136.049 C 737.592 1133.702, 730.975 1127.832, 728.011 1122.021 C 721.290 1108.847, 720.504 1088.419, 726.138 1073.360 C 729.196 1065.189, 737.657 1056.773, 745.013 1054.589 C 751.112 1052.777, 758.826 1052.546, 764.118 1054.016 C 770.011 1055.653, 774.197 1059.134, 779.500 1066.808 C 785.569 1075.590, 788.909 1077.985, 795.102 1077.993 C 803.154 1078.005, 809.995 1071.252, 809.998 1063.288 C 810.003 1053.215, 799.271 1038.688, 787.646 1033.033 C 773.925 1026.358, 756.562 1024.492, 740.500 1027.965 M 837.394 1027.861 C 834.366 1029.271, 832.725 1030.936, 831.144 1034.202 C 829.029 1038.572, 829 1039.399, 829 1095.604 L 829 1152.576 831.250 1156.964 C 836.671 1167.536, 850.254 1167.499, 856.500 1156.895 C 858.438 1153.605, 858.500 1151.702, 858.500 1095.500 C 858.500 1039.298, 858.438 1037.395, 856.500 1034.105 C 852.274 1026.930, 844.706 1024.457, 837.394 1027.861 M 986.071 1027.698 C 984.185 1028.689, 981.710 1030.770, 980.571 1032.323 C 978.540 1035.091, 978.495 1036.271, 978.219 1094.109 C 977.948 1151.121, 978.005 1153.222, 979.928 1157.570 C 981.443 1160.995, 982.813 1162.442, 985.673 1163.637 C 992.734 1166.587, 1000.652 1163.895, 1003.697 1157.508 L 1005.316 1154.114 1009.299 1157.524 C 1015.118 1162.505, 1021.791 1164.504, 1032.500 1164.477 C 1040.110 1164.457, 1042.383 1164.043, 1047.218 1161.797 C 1063.733 1154.123, 1073.086 1136.098, 1073.055 1112 C 1073.026 1089.111, 1064.738 1073.036, 1049.159 1065.655 C 1042.929 1062.703, 1041.791 1062.501, 1031.500 1062.521 C 1019.998 1062.544, 1016.909 1063.450, 1008.750 1069.199 L 1006 1071.136 1005.978 1054.818 C 1005.959 1040.970, 1005.669 1037.869, 1004.062 1034.328 C 1000.768 1027.074, 992.826 1024.147, 986.071 1027.698 M 1194.424 1027.842 C 1191.627 1029.149, 1189.745 1030.963, 1188.424 1033.623 C 1186.605 1037.288, 1186.485 1040.563, 1186.218 1093.383 C 1185.975 1141.365, 1186.153 1150.016, 1187.478 1154.572 C 1189.514 1161.577, 1193.400 1164.500, 1200.677 1164.500 C 1206.622 1164.500, 1210.309 1162.313, 1213.500 1156.895 C 1215.437 1153.606, 1215.500 1151.702, 1215.500 1096 C 1215.500 1040.478, 1215.431 1038.365, 1213.500 1034.565 C 1209.623 1026.936, 1202.065 1024.272, 1194.424 1027.842 M 306 1030.752 C 303.722 1031.889, 301.714 1034.058, 300.250 1036.962 L 298 1041.424 298.022 1095.462 C 298.042 1145.754, 298.171 1149.777, 299.881 1153.500 C 304.122 1162.736, 305.465 1162.988, 350.500 1162.993 C 391.165 1162.997, 391.863 1162.902, 396.371 1156.754 C 398.932 1153.262, 399.095 1145.321, 396.683 1141.639 C 392.859 1135.803, 391.217 1135.524, 359 1135.236 L 329.500 1134.972 329.224 1120.531 L 328.947 1106.091 356.402 1105.795 C 382.440 1105.515, 384.003 1105.392, 386.679 1103.409 C 388.230 1102.260, 390.161 1099.447, 390.969 1097.159 C 392.261 1093.501, 392.261 1092.499, 390.969 1088.841 C 390.161 1086.553, 388.231 1083.740, 386.679 1082.591 C 384.024 1080.623, 382.261 1080.471, 356.679 1080 L 329.500 1079.500 329.219 1067.250 L 328.938 1055 357.735 1055 C 383.714 1055, 386.865 1054.821, 389.938 1053.173 C 396.761 1049.513, 398.833 1040.293, 394.227 1034.087 C 390.503 1029.069, 390.151 1029.030, 348.500 1029.016 C 313.355 1029.004, 309.154 1029.176, 306 1030.752 M 904.754 1063.084 C 898.365 1064.590, 888.960 1069.943, 884.120 1074.828 C 872.273 1086.784, 867.296 1107.571, 871.514 1127.483 C 877.250 1154.564, 901.725 1169.580, 930.270 1163.531 C 944.558 1160.503, 955.431 1151.856, 961.497 1138.697 C 965.927 1129.086, 967.387 1121.034, 966.751 1109.725 C 965.449 1086.593, 953.612 1069.976, 934.156 1063.967 C 927.307 1061.851, 911.940 1061.390, 904.754 1063.084 M 1110 1063.309 C 1094.704 1067.647, 1085.277 1077.047, 1084.293 1088.940 C 1083.838 1094.440, 1085.375 1097.662, 1089.912 1100.720 C 1096.284 1105.014, 1103.516 1103.389, 1107.381 1096.793 C 1108.771 1094.422, 1111.520 1090.919, 1113.491 1089.008 C 1116.823 1085.779, 1117.601 1085.509, 1124.563 1085.157 C 1135.749 1084.592, 1139.196 1086.744, 1140.202 1094.918 C 1140.548 1097.727, 1141.191 1097.492, 1120.500 1102.119 C 1097.450 1107.273, 1094.439 1108.430, 1088.414 1114.456 C 1081.929 1120.940, 1079.476 1127.887, 1080.253 1137.564 C 1082.345 1163.630, 1114.610 1173.578, 1140.465 1156.128 L 1144.804 1153.200 1147.872 1157.472 C 1155.056 1167.474, 1166.782 1167.129, 1172.466 1156.748 C 1174.431 1153.158, 1174.431 1153.155, 1172.200 1143.829 C 1170.308 1135.923, 1169.967 1131.679, 1169.964 1116 C 1169.957 1081.394, 1166.637 1072.223, 1151.637 1065.367 C 1145.870 1062.731, 1144.567 1062.546, 1130 1062.297 C 1119.686 1062.121, 1112.994 1062.460, 1110 1063.309 M 911.500 1087.356 C 907.402 1089.253, 904.513 1092.597, 901.863 1098.512 C 900.017 1102.632, 899.632 1105.267, 899.650 1113.654 C 899.669 1122.656, 899.981 1124.442, 902.398 1129.380 C 908.323 1141.491, 921.062 1144.227, 930.160 1135.343 C 935.106 1130.515, 937.002 1124.334, 936.994 1113.068 C 936.986 1100.382, 934.424 1093.590, 927.791 1088.678 C 924.369 1086.142, 915.650 1085.435, 911.500 1087.356 M 1019.500 1087.515 C 1014.784 1090.058, 1012.344 1092.793, 1009.834 1098.348 C 1006.689 1105.312, 1006.440 1122.366, 1009.397 1128.320 C 1015.602 1140.814, 1027.935 1143.579, 1036.703 1134.443 C 1041.859 1129.070, 1043.373 1124.203, 1043.373 1113 C 1043.373 1101.763, 1041.812 1096.743, 1036.605 1091.232 C 1032.905 1087.316, 1031.731 1086.687, 1027.431 1086.319 C 1024.102 1086.035, 1021.525 1086.423, 1019.500 1087.515 M 1126.167 1122.014 C 1114.342 1124.928, 1110.713 1127.024, 1109.563 1131.603 C 1108.041 1137.671, 1115.581 1143.835, 1122.912 1142.516 C 1133.271 1140.652, 1139.223 1134.495, 1140.568 1124.250 C 1141.396 1117.949, 1142.173 1118.070, 1126.167 1122.014" stroke="none" fill="#f8f9e9" fill-rule="evenodd"/><path d="M 675.317 62.083 C 674.721 62.679, 670.019 63.530, 664.867 63.975 C 659.715 64.420, 653.025 65.472, 650 66.312 C 646.975 67.152, 641.225 68.129, 637.223 68.483 C 633.220 68.837, 627.475 69.977, 624.455 71.016 C 621.435 72.055, 616.159 73.211, 612.732 73.586 C 609.304 73.961, 605.333 74.857, 603.906 75.578 C 602.480 76.300, 598.880 77.181, 595.906 77.537 C 592.933 77.892, 587.125 79.260, 583 80.575 C 568.560 85.180, 565.458 86.107, 560 87.450 C 553.996 88.927, 547.265 91.153, 539.500 94.229 C 536.750 95.319, 532.831 96.549, 530.791 96.963 C 528.751 97.378, 526.044 98.396, 524.776 99.227 C 523.508 100.058, 520.902 101.071, 518.985 101.478 C 517.068 101.884, 513.925 103.006, 512 103.969 C 507.296 106.323, 498.297 109.941, 494.016 111.199 C 492.099 111.763, 489.451 113.073, 488.131 114.112 C 486.811 115.150, 485.095 116, 484.319 116 C 483.543 116, 480.795 117.125, 478.212 118.500 C 475.629 119.875, 472.786 121, 471.893 121 C 471 121, 469.105 121.916, 467.682 123.036 C 466.258 124.155, 463.610 125.569, 461.797 126.177 C 459.984 126.786, 457.825 127.841, 457 128.523 C 456.175 129.205, 454.375 130.103, 453 130.518 C 451.625 130.933, 447.350 133.053, 443.500 135.228 C 439.650 137.402, 435.150 139.820, 433.500 140.599 C 430.495 142.019, 425.796 144.672, 415.523 150.750 C 412.502 152.537, 409.629 154, 409.138 154 C 408.647 154, 407.657 154.708, 406.939 155.573 C 406.221 156.438, 404.029 158.018, 402.067 159.084 C 394.886 162.984, 372.442 177.522, 369.293 180.313 C 368.078 181.388, 364.871 183.671, 362.165 185.384 C 356.990 188.661, 346.574 196.193, 341.500 200.328 C 339.850 201.673, 334 206.369, 328.500 210.765 C 308.037 227.121, 285.080 248.154, 265.282 268.683 C 256.362 277.932, 248.037 286.854, 246.782 288.509 C 245.527 290.165, 242.577 293.540, 240.227 296.009 C 227.936 308.925, 201.268 343.710, 186.560 366.010 C 183.843 370.129, 179.836 376.200, 177.655 379.500 C 175.474 382.800, 172.586 387.525, 171.236 390 C 169.887 392.475, 167.783 396.075, 166.561 398 C 160.110 408.163, 159 410.009, 159 410.580 C 159 410.922, 156.116 416.298, 152.591 422.525 C 149.067 428.753, 145.858 434.895, 145.460 436.174 C 145.063 437.453, 144.009 439.625, 143.119 441 C 140.592 444.902, 132.543 462.130, 131.438 466 C 131.046 467.375, 129.887 469.573, 128.862 470.885 C 127.838 472.197, 126.996 473.772, 126.991 474.385 C 126.986 474.998, 125.875 477.750, 124.522 480.500 C 123.169 483.250, 122.048 486.050, 122.031 486.723 C 122.002 487.886, 120.825 490.726, 115.382 502.772 C 114.072 505.672, 113 508.727, 113 509.562 C 113 510.397, 112.100 512.844, 111 515 C 109.900 517.156, 109 519.901, 109 521.101 C 109 522.300, 108.143 525.130, 107.096 527.390 C 104.594 532.789, 101.106 543.130, 99.470 550 C 98.749 553.025, 97.674 556.850, 97.081 558.500 C 96.018 561.457, 94.711 566.228, 91.467 579 C 90.559 582.575, 88.997 588.425, 87.995 592 C 86.994 595.575, 85.871 601.142, 85.500 604.371 C 85.129 607.600, 84.256 611.875, 83.559 613.871 C 82.862 615.867, 81.970 620.425, 81.577 624 C 81.185 627.575, 80.028 633.875, 79.007 638 C 77.986 642.125, 76.856 649.775, 76.495 655 C 76.134 660.225, 75.200 667.567, 74.419 671.315 C 73.444 675.998, 73 684.988, 73 700.046 L 73 721.962 75.250 722.421 C 80.117 723.414, 95.097 723.821, 106.679 723.276 C 118.460 722.722, 118.877 722.625, 119.455 720.322 C 120.089 717.797, 121.098 707.950, 123.511 680.736 C 124.329 671.517, 125.418 662.067, 125.932 659.736 C 126.445 657.406, 127.365 651.675, 127.976 647 C 130.569 627.134, 142.205 577.230, 148.143 560.500 C 148.729 558.850, 150.029 554.800, 151.032 551.500 C 152.035 548.200, 153.991 542.350, 155.378 538.500 C 156.765 534.650, 158.786 529.025, 159.870 526 C 161.701 520.890, 163.120 517.347, 169.387 502.250 C 175.471 487.592, 177.574 482.980, 185.463 467 C 194.255 449.193, 203.414 432.692, 214.883 414 C 219.156 407.035, 227.916 393.850, 237.804 379.500 C 251.664 359.387, 280.666 324.860, 301.686 303.447 C 331.574 273.002, 351.917 255.568, 392 226.048 C 395.643 223.366, 416.904 209.280, 423 205.511 C 424.925 204.320, 428.300 202.194, 430.500 200.784 C 432.700 199.375, 434.950 198.060, 435.500 197.861 C 436.050 197.663, 439.650 195.623, 443.500 193.328 C 457.029 185.266, 497.005 165, 499.380 165 C 500.026 165, 501.481 164.351, 502.613 163.558 C 503.745 162.765, 506.883 161.245, 509.586 160.179 C 512.289 159.114, 518.463 156.613, 523.306 154.621 C 528.149 152.630, 532.649 150.997, 533.306 150.994 C 533.963 150.990, 535.850 150.271, 537.500 149.395 C 540.999 147.537, 552.325 143.490, 559.500 141.535 C 562.250 140.785, 566.300 139.508, 568.500 138.697 C 572.170 137.344, 576.555 136.040, 597.966 129.939 C 602.072 128.769, 607.472 127.446, 609.966 127 C 612.460 126.555, 618.325 125.283, 623 124.174 C 635.520 121.205, 650.737 118.220, 657 117.504 C 671.133 115.888, 680.537 113.742, 682.703 111.639 C 683.915 110.463, 685.565 108.955, 686.369 108.289 C 688.379 106.625, 689.472 95.365, 688.103 90.431 C 686.728 85.480, 686.698 76.628, 688.039 71.798 C 688.832 68.944, 688.728 67.285, 687.585 64.548 C 686.175 61.175, 685.862 61, 681.251 61 C 678.583 61, 675.913 61.487, 675.317 62.083 M 822.667 61.667 C 822.300 62.033, 821.989 64.171, 821.976 66.417 C 821.963 68.662, 821.489 72.300, 820.923 74.500 C 820.356 76.700, 819.771 84.746, 819.622 92.381 C 819.353 106.176, 819.368 106.279, 822.007 109.169 C 824.522 111.922, 825.281 112.127, 836.287 113.024 C 842.681 113.545, 849.987 114.437, 852.524 115.005 C 855.061 115.574, 860.594 116.486, 864.819 117.033 C 876.540 118.549, 899.731 123, 906.918 125.113 C 910.449 126.151, 914.026 127, 914.868 127 C 916.961 127, 948.930 135.759, 955.500 138.133 C 957.150 138.729, 961.200 140.049, 964.500 141.067 C 972.679 143.588, 981.272 146.581, 988.755 149.515 C 992.197 150.864, 998.047 153.127, 1001.756 154.543 C 1005.465 155.959, 1009.850 157.752, 1011.500 158.527 C 1013.150 159.303, 1017.875 161.361, 1022 163.101 C 1031.486 167.102, 1058.797 180.502, 1070.183 186.741 C 1083.799 194.203, 1094.275 200.166, 1097 202.007 C 1098.375 202.936, 1101.075 204.652, 1103 205.821 C 1108.815 209.353, 1135.070 227.017, 1141.786 231.915 C 1149.888 237.824, 1169.067 252.925, 1175.500 258.460 C 1178.250 260.827, 1184.100 265.844, 1188.500 269.610 C 1192.900 273.376, 1201.382 281.192, 1207.349 286.979 C 1252.922 331.177, 1285.030 371.499, 1317.751 425.620 C 1326.935 440.811, 1337.258 460.650, 1347.609 483 C 1355.094 499.164, 1359.528 509.742, 1365.630 526 C 1369.253 535.653, 1378.037 561.768, 1379.589 567.500 C 1380.334 570.250, 1382.127 576.775, 1383.575 582 C 1385.022 587.225, 1387.014 595.100, 1388.002 599.500 C 1388.989 603.900, 1390.485 610.425, 1391.327 614 C 1394.075 625.680, 1396.294 637.334, 1397.517 646.500 C 1401.049 672.981, 1402.256 680.640, 1403.113 682 C 1403.633 682.825, 1404.322 684.288, 1404.646 685.250 C 1405.380 687.436, 1404.882 687.496, 1412.270 684.328 C 1417.911 681.908, 1420.059 681.601, 1435 681.078 L 1451.500 680.500 1451.792 672.153 C 1451.953 667.562, 1451.669 663.287, 1451.162 662.653 C 1450.655 662.019, 1449.932 657.900, 1449.556 653.500 C 1449.180 649.100, 1448.251 642.800, 1447.491 639.500 C 1446.731 636.200, 1445.629 629.642, 1445.041 624.926 C 1444.453 620.210, 1443.079 613.809, 1441.986 610.701 C 1440.894 607.593, 1440 603.534, 1440 601.682 C 1440 599.829, 1439.100 595.697, 1438 592.500 C 1436.900 589.303, 1436 585.421, 1436 583.874 C 1436 582.327, 1434.875 577.615, 1433.500 573.403 C 1432.125 569.191, 1431 564.783, 1431 563.608 C 1431 562.432, 1430.108 559.806, 1429.018 557.772 C 1427.927 555.738, 1426.740 552.144, 1426.379 549.787 C 1426.017 547.429, 1425.170 544.375, 1424.495 543 C 1423.820 541.625, 1422.953 538.700, 1422.569 536.500 C 1422.185 534.300, 1421.054 530.700, 1420.056 528.500 C 1419.058 526.300, 1417.564 522.475, 1416.736 520 C 1414.086 512.082, 1412.793 508.600, 1410.874 504.223 C 1409.843 501.871, 1408.998 499.171, 1408.995 498.223 C 1408.992 497.275, 1407.881 494.700, 1406.526 492.500 C 1405.171 490.300, 1404.048 487.818, 1404.031 486.985 C 1404.014 486.152, 1403.163 483.902, 1402.140 481.985 C 1401.117 480.068, 1399.958 477.375, 1399.564 476 C 1398.820 473.402, 1395.704 466.331, 1393.395 462 C 1391.934 459.260, 1390.989 457.248, 1387.290 449 C 1385.934 445.975, 1384.438 442.825, 1383.968 442 C 1383.497 441.175, 1380.342 435.100, 1376.956 428.500 C 1373.570 421.900, 1370.357 415.958, 1369.816 415.296 C 1368.898 414.173, 1366.987 410.756, 1363.221 403.500 C 1362.364 401.850, 1359.939 397.881, 1357.832 394.679 C 1355.724 391.478, 1354 388.688, 1354 388.480 C 1354 387.750, 1336.994 361.656, 1331.854 354.500 C 1330.274 352.300, 1327.350 348.112, 1325.356 345.194 C 1322.135 340.479, 1317.043 333.817, 1304.313 317.661 C 1289.931 299.409, 1271.344 279.116, 1246.098 254.100 C 1234.219 242.330, 1222.398 231.080, 1219.828 229.100 C 1217.258 227.120, 1211.386 222.291, 1206.779 218.368 C 1188.505 202.810, 1173.515 191.484, 1150 175.466 C 1146.425 173.031, 1141.577 169.684, 1139.228 168.028 C 1136.878 166.373, 1133.278 164.102, 1131.228 162.983 C 1125.117 159.648, 1120.532 156.820, 1120 156.059 C 1119.540 155.401, 1118.030 154.562, 1109.500 150.225 C 1107.850 149.386, 1105.887 148.205, 1105.138 147.600 C 1103.174 146.013, 1088.474 138.184, 1074 131.014 C 1067.125 127.609, 1060.825 124.404, 1060 123.891 C 1059.175 123.379, 1056.925 122.286, 1055 121.462 C 1051.257 119.861, 1049.268 118.957, 1038.813 114.104 C 1035.135 112.397, 1031.535 110.997, 1030.813 110.993 C 1030.091 110.990, 1028.150 110.093, 1026.500 109 C 1024.850 107.907, 1022.600 107.009, 1021.500 107.003 C 1020.400 106.997, 1018.069 106.120, 1016.320 105.054 C 1014.572 103.987, 1011.199 102.592, 1008.826 101.953 C 1006.453 101.314, 1002.839 99.938, 1000.795 98.896 C 998.752 97.853, 996.144 97, 995 97 C 993.856 97, 991.251 96.166, 989.210 95.148 C 987.170 94.129, 983.321 92.762, 980.657 92.110 C 977.994 91.458, 974.844 90.290, 973.657 89.514 C 972.471 88.737, 969.025 87.667, 966 87.135 C 962.975 86.603, 958.475 85.493, 956 84.669 C 940.484 79.501, 935.186 77.982, 932.718 77.990 C 931.189 77.996, 927.364 77.154, 924.218 76.120 C 921.073 75.086, 916.250 73.955, 913.500 73.606 C 910.750 73.258, 905.749 72.110, 902.386 71.056 C 899.023 70.002, 891.970 68.660, 886.712 68.074 C 881.454 67.488, 875.880 66.515, 874.326 65.912 C 872.772 65.309, 867.035 64.420, 861.577 63.935 C 856.119 63.451, 851.192 62.592, 850.627 62.027 C 849.498 60.898, 823.767 60.566, 822.667 61.667 M 1336.230 81.015 C 1317.611 85.893, 1300.733 98.814, 1290.935 115.690 C 1282.834 129.643, 1279.819 149.237, 1283.200 165.958 C 1288.559 192.467, 1309.824 214.490, 1337 221.677 C 1346.692 224.240, 1363.336 224.017, 1373.299 221.191 C 1405.332 212.105, 1427.044 183.955, 1426.983 151.590 C 1426.959 139.098, 1424.872 130.177, 1419.357 119 C 1415.406 110.991, 1413.245 108.082, 1405.585 100.460 C 1395.123 90.050, 1385.205 84.248, 1372.320 81.001 C 1361.933 78.384, 1346.249 78.390, 1336.230 81.015 M 1345.951 96.073 C 1323.033 99.397, 1304.337 117.441, 1299.401 141 C 1293.434 169.477, 1312.306 198.101, 1342 205.610 C 1350.753 207.824, 1364.110 207.042, 1373.015 203.795 C 1389.692 197.713, 1402.844 183.949, 1408.036 167.145 C 1410.414 159.448, 1410.659 145.066, 1408.547 137.131 C 1401.289 109.861, 1374.053 91.997, 1345.951 96.073 M 1326 151 L 1326 190 1334.500 190 L 1343 190 1343 174.500 L 1343 159 1352.826 159 C 1365.732 159, 1366.763 159.927, 1367.990 172.636 C 1368.461 177.511, 1369.164 183.412, 1369.551 185.750 L 1370.256 190 1379.603 190 L 1388.950 190 1387.927 187.308 C 1387.364 185.828, 1386.078 179.143, 1385.070 172.453 C 1383.012 158.806, 1381.467 155.559, 1375.834 153.037 L 1372.084 151.358 1376.508 149.208 C 1383.084 146.013, 1386.379 140.482, 1386.361 132.667 C 1386.344 125.469, 1384.472 121.224, 1379.712 117.594 C 1373.943 113.194, 1366.597 112, 1345.290 112 L 1326 112 1326 151 M 1343 135.594 L 1343 145.780 1352.986 145.577 C 1361.830 145.398, 1363.248 145.116, 1365.384 143.109 C 1369.666 139.086, 1369.282 129.465, 1364.750 127.227 C 1363.512 126.616, 1358.112 125.956, 1352.750 125.762 L 1343 125.408 1343 135.594 M 1096.315 285.007 C 1091.844 286.809, 1090.534 293.967, 1093.912 298.139 C 1095.575 300.194, 1096.690 300.500, 1102.500 300.500 C 1108.310 300.500, 1109.425 300.194, 1111.088 298.139 C 1113.775 294.821, 1113.543 289.878, 1110.548 286.646 C 1108.529 284.468, 1107.247 284.011, 1103.298 284.063 C 1100.659 284.098, 1097.517 284.523, 1096.315 285.007 M 1133.041 286.805 C 1128.088 291.759, 1129.273 297.632, 1135.720 300.084 C 1137.046 300.588, 1143.007 301, 1148.968 301 C 1159.873 301, 1177.879 303.825, 1180.421 305.934 C 1181.109 306.506, 1183.437 307.596, 1185.594 308.357 C 1193.725 311.226, 1207.613 322.618, 1214.627 332.173 C 1218.631 337.627, 1225 349.512, 1225 351.529 C 1225 353.076, 1231.591 359, 1233.312 359 C 1235.500 359, 1238.687 356.170, 1239.959 353.099 C 1240.939 350.732, 1240.939 349.333, 1239.955 346.309 C 1236.559 335.867, 1227.236 321.428, 1217.621 311.720 C 1210.596 304.626, 1198.676 295.932, 1193.237 293.936 C 1191.732 293.384, 1188.700 292.079, 1186.500 291.037 C 1176.948 286.512, 1168 284.764, 1151.791 284.256 L 1136.083 283.763 1133.041 286.805 M 938 327.017 C 919.120 329.147, 902.624 343.462, 895.857 363.586 C 893.667 370.099, 893.502 372.385, 893.016 403 L 892.500 435.500 876 436.025 C 859.880 436.538, 859.359 436.623, 853.364 439.732 C 846.432 443.327, 839.627 450.631, 835.881 458.500 L 833.500 463.500 833 605 C 832.508 744.121, 832.466 746.562, 830.500 750.173 C 828.102 754.576, 821.550 759.997, 818.612 760.008 C 768.290 760.199, 761.804 760.082, 760.455 758.963 C 759.217 757.935, 759 750.290, 759 707.693 C 759 664.254, 758.782 656.855, 757.353 651.762 C 756.081 647.229, 755.977 645.623, 756.895 644.705 C 757.725 643.875, 761.934 643.614, 770.852 643.841 C 790.726 644.347, 798.102 641.388, 804.663 630.279 C 807.043 626.250, 807.141 625.446, 806.828 612.623 C 806.504 599.371, 806.457 599.129, 803.354 594.844 C 801.623 592.455, 798.023 589.150, 795.354 587.500 L 790.500 584.500 768.862 584.181 C 755.443 583.984, 745.698 584.273, 743.205 584.945 C 738.059 586.331, 729.491 593.981, 727.989 598.533 C 725.857 604.993, 722.782 602.600, 719.968 592.290 C 718.949 588.555, 716.932 581.675, 715.487 577 C 714.041 572.325, 712.231 566.025, 711.465 563 C 710.698 559.975, 709.411 555.925, 708.605 554 C 707.799 552.075, 705.716 545.550, 703.977 539.500 C 702.238 533.450, 700.225 526.700, 699.504 524.500 C 698.783 522.300, 696.948 516.450, 695.427 511.500 C 693.907 506.550, 691.302 500.061, 689.640 497.081 C 683.332 485.769, 670.588 476.136, 659.122 474.013 C 651.626 472.626, 378.537 472.571, 371.234 473.956 C 360.065 476.074, 349.454 483.472, 342.661 493.876 C 337.918 501.142, 336.699 504.178, 331.973 520.500 C 330.221 526.550, 327.977 533.975, 326.985 537 C 325.994 540.025, 323.751 547.225, 322 553 C 320.249 558.775, 318.011 565.975, 317.026 569 C 314.054 578.129, 310.107 591.247, 309.026 595.591 C 308.466 597.841, 307.142 600.466, 306.084 601.424 C 304.248 603.086, 304.109 603.073, 303.080 601.149 C 302.486 600.039, 301.983 598.539, 301.962 597.816 C 301.894 595.428, 295.584 589.181, 290.601 586.568 C 285.790 584.046, 285.326 584, 264.601 584.006 C 252.995 584.009, 241.849 584.470, 239.831 585.030 C 237.812 585.591, 233.907 588.076, 231.153 590.553 C 224.435 596.592, 222.490 601.773, 222.534 613.500 C 222.580 625.479, 224.051 630.027, 229.805 635.970 C 236.364 642.746, 241.884 644.240, 259.019 643.877 C 274.338 643.552, 275.109 643.904, 273.002 650.255 C 271.857 653.704, 271.528 667.902, 271.243 726 C 270.926 790.488, 271.058 798.236, 272.592 805 C 274.614 813.922, 277.397 819.792, 282.916 826.775 C 287.486 832.556, 296.462 839.597, 301.302 841.198 C 306.884 843.044, 307 843.552, 307 866.086 C 307 891.507, 308.276 897.235, 315.406 903.807 C 322.709 910.538, 325.670 911, 361.500 911 C 395.871 911, 400.165 910.428, 406.314 905.029 C 408.121 903.442, 410.815 899.743, 412.300 896.808 C 414.906 891.657, 415.001 890.897, 415.015 874.986 C 415.024 865.919, 415.434 857.863, 415.927 857.084 C 416.686 855.885, 418.566 855.846, 428.162 856.827 C 462.227 860.313, 551.776 860.896, 589 857.875 C 597.525 857.183, 606.750 856.591, 609.500 856.559 L 614.500 856.500 615.014 874.500 C 615.600 895.034, 616.308 897.342, 624.269 904.681 C 630.638 910.551, 633.890 911, 670.012 911 C 705.110 911, 708.214 910.469, 715.242 903.256 C 721.600 896.732, 722 894.747, 722 869.755 C 722 844.241, 721.920 844.524, 730.304 840.537 C 740.385 835.742, 749.163 826.767, 753.812 816.500 C 757.550 808.245, 758.976 801.060, 758.988 790.405 C 758.998 781.905, 759.289 780.049, 760.829 778.655 C 762.438 777.199, 766.011 776.999, 790.579 776.989 C 824.750 776.976, 826.871 776.532, 837.164 767.233 C 839.363 765.246, 842.589 760.893, 844.332 757.560 L 847.500 751.500 848 610 C 848.552 453.894, 848.061 465.014, 854.668 458.864 C 860.282 453.639, 862.807 453, 877.843 453 C 889.635 453, 891.880 453.244, 892.393 454.582 C 892.727 455.452, 893 548.972, 893 662.406 L 893 868.648 895.399 876.574 C 898.513 886.864, 902.039 892.969, 908.916 899.983 C 917.232 908.462, 924.563 912.508, 938 916.034 C 940.020 916.564, 987.439 916.962, 1050.122 916.976 L 1158.745 917 1166.496 914.470 C 1176.708 911.136, 1182.265 907.878, 1189.310 901.095 C 1196.243 894.419, 1200.895 887.010, 1204.123 877.500 L 1206.500 870.500 1206.500 621 L 1206.500 371.500 1204.100 364.500 C 1199.823 352.024, 1193.535 343.298, 1182.929 335.119 C 1177.802 331.166, 1168.566 327.705, 1161 326.903 C 1151.636 325.910, 946.881 326.015, 938 327.017 M 1016.588 445.902 C 1014.975 447.685, 1014.817 450.137, 1014.930 471.686 C 1015.037 492.122, 1015.279 495.669, 1016.634 496.688 C 1017.783 497.553, 1028.392 497.900, 1055.582 497.964 C 1092.132 498.048, 1092.995 498.005, 1095.026 495.974 C 1097.028 493.972, 1097.091 493.059, 1096.801 470.497 C 1096.576 452.969, 1096.174 446.770, 1095.201 445.798 C 1094.192 444.790, 1085.457 444.437, 1056.137 444.216 C 1019.642 443.942, 1018.311 443.999, 1016.588 445.902 M 2903 486.663 C 2838.113 493.016, 2785.879 517.002, 2740.131 561.454 C 2698.090 602.303, 2673.891 649.255, 2664.857 707.500 C 2662.225 724.471, 2661.264 760.550, 2662.949 779.114 C 2668.475 839.958, 2691.380 891.069, 2732.107 933.434 C 2773.606 976.602, 2823.202 1001.636, 2886 1011.113 C 2899.441 1013.142, 2905.286 1013.456, 2930 1013.476 C 2948.866 1013.492, 2961.542 1013.045, 2967.500 1012.155 C 3029.532 1002.883, 3077.114 977.805, 3125.886 928.676 L 3138.271 916.199 3101.886 878.850 C 3081.874 858.307, 3065.032 841.500, 3064.461 841.500 C 3063.889 841.500, 3060.018 845.325, 3055.858 850 C 3029.343 879.797, 2996.557 897.830, 2956.500 904.648 C 2941.006 907.286, 2912.767 907.054, 2898.237 904.170 C 2868.161 898.201, 2842.844 884.158, 2820.967 861.309 C 2795.417 834.625, 2782.371 801.808, 2780.387 759.228 C 2778.107 710.298, 2791.976 670.851, 2821.955 641 C 2844.905 618.148, 2872.894 603.550, 2904.602 597.895 C 2918.737 595.373, 2946.549 594.856, 2959.880 596.867 C 2986.622 600.900, 3011.579 611.220, 3033.206 627.186 C 3041.030 632.962, 3060.491 651.550, 3066.320 658.815 C 3067.783 660.638, 3069.440 661.846, 3070.001 661.500 C 3070.562 661.153, 3085.939 643.911, 3104.171 623.184 C 3122.403 602.458, 3138.154 584.565, 3139.172 583.423 C 3141.006 581.366, 3140.912 581.233, 3129.195 569.361 C 3081.822 521.364, 3028.456 494.935, 2964 487.549 C 2951.799 486.151, 2913.856 485.600, 2903 486.663 M 3593 486.658 C 3528.294 492.899, 3475.089 517.982, 3428.962 563.993 C 3383.206 609.634, 3359.093 663.046, 3353.905 730.251 C 3351.380 762.957, 3355.081 800.074, 3363.952 831.013 C 3383.035 897.567, 3432.386 955.667, 3496.500 987.060 C 3521.553 999.327, 3544.929 1006.569, 3574.500 1011.224 C 3586.753 1013.153, 3592.431 1013.428, 3620 1013.428 C 3653.686 1013.429, 3664.914 1012.473, 3689.515 1007.508 C 3740.706 997.178, 3784.326 974.408, 3819.076 939.876 L 3829 930.014 3829 839.007 L 3829 748 3771.500 748 L 3714 748 3714 817.989 L 3714 887.978 3705.862 892.069 C 3701.387 894.320, 3692.499 897.900, 3686.112 900.026 C 3662.781 907.793, 3641.973 910.523, 3612.190 909.725 C 3595.493 909.277, 3590.945 908.805, 3582.271 906.619 C 3556.008 900, 3535.425 888.155, 3515.415 868.145 C 3485.759 838.488, 3472 801.681, 3472 752 C 3472 724.701, 3475.463 705.045, 3484.039 683.664 C 3501.912 639.106, 3542.503 605.473, 3591.312 594.781 C 3600.298 592.812, 3604.332 592.551, 3625.500 592.569 C 3646.656 592.586, 3650.744 592.857, 3660 594.859 C 3689.102 601.152, 3712.144 612.837, 3739.995 635.426 C 3748.159 642.047, 3750.751 643.667, 3751.661 642.719 C 3753.334 640.975, 3810 558.963, 3810 558.285 C 3810 557.974, 3809.393 557.221, 3808.652 556.610 C 3783.940 536.262, 3769.122 526.235, 3748 515.568 C 3717.168 499.997, 3684.370 490.528, 3649.144 487.029 C 3639.726 486.093, 3601.475 485.840, 3593 486.658 M 4502 487.136 C 4438.443 493.645, 4384.243 519.540, 4339.297 564.869 C 4299.013 605.495, 4274.452 655.848, 4267.530 712 C 4256.272 803.328, 4284.994 885.383, 4348.500 943.317 C 4396.243 986.872, 4450.550 1009.348, 4516.594 1012.888 C 4585.274 1016.569, 4645.890 999.281, 4696.418 961.602 C 4742.060 927.566, 4775.297 881.126, 4790.449 830.216 C 4798.385 803.553, 4801.348 781.632, 4801.360 749.500 C 4801.372 714.374, 4797.930 691.853, 4787.910 661.500 C 4770.634 609.168, 4733.469 561.698, 4684.051 528.842 C 4648.695 505.335, 4608.829 491.547, 4563.144 487.025 C 4550.980 485.821, 4514.190 485.888, 4502 487.136 M 1749.667 497.667 C 1749.300 498.033, 1749 613.008, 1749 753.167 L 1749 1008 1937.500 1008 L 2126 1008 2126 957.500 L 2126 907 1995 907 L 1864 907 1864 854.504 L 1864 802.008 1978.250 801.754 L 2092.500 801.500 2092.760 752.750 L 2093.019 704 1978.510 704 L 1864 704 1864 652 L 1864 600 1991 600 L 2118 600 2118 548.500 L 2118 497 1934.167 497 C 1833.058 497, 1750.033 497.300, 1749.667 497.667 M 2144 498.162 C 2144 498.810, 2190.005 613.789, 2246.233 753.670 L 2348.467 1008 2397.127 1008 L 2445.787 1008 2448.486 1001.250 C 2449.971 997.538, 2495.970 883.125, 2550.707 747 C 2605.443 610.875, 2650.451 498.934, 2650.724 498.242 C 2651.120 497.239, 2638.637 497.037, 2588.909 497.242 L 2526.599 497.500 2462.101 658.750 C 2426.628 747.438, 2397.355 819.993, 2397.052 819.985 C 2396.748 819.977, 2367.475 747.414, 2332 658.735 L 2267.500 497.500 2205.750 497.242 C 2158.894 497.047, 2144 497.269, 2144 498.162 M 3911.667 497.667 C 3911.300 498.033, 3911 613.008, 3911 753.167 L 3911 1008 4077.500 1008 L 4244 1008 4244 957 L 4244 906 4135 906 L 4026 906 4026 701.500 L 4026 497 3969.167 497 C 3937.908 497, 3912.033 497.300, 3911.667 497.667 M 4878.731 497.602 C 4878.329 498.004, 4878 613.008, 4878 753.167 L 4878 1008 5001.750 1007.997 C 5079.909 1007.994, 5129.737 1007.608, 5137 1006.946 C 5186.387 1002.452, 5222.352 988.526, 5246.087 964.707 C 5269.300 941.412, 5283.461 910.413, 5285.916 877.516 C 5289.789 825.620, 5269.052 784.508, 5226.145 759.017 C 5217.919 754.130, 5203.086 747.989, 5193.500 745.501 C 5189.650 744.501, 5186.149 743.382, 5185.721 743.013 C 5185.293 742.644, 5188.810 740.619, 5193.538 738.512 C 5208.568 731.815, 5227.847 716.572, 5237.657 703.631 C 5258.081 676.684, 5263.881 629.125, 5251.391 591 C 5245.542 573.149, 5230.194 548.697, 5217.788 537.467 C 5196.558 518.250, 5162.298 505.159, 5118 499.339 C 5107.225 497.924, 5089.904 497.640, 4992.481 497.284 C 4930.321 497.057, 4879.133 497.200, 4878.731 497.602 M 5511.363 498.221 C 5510.943 498.902, 5461.209 613.768, 5400.844 753.480 L 5291.089 1007.500 5351.737 1007.758 C 5385.093 1007.900, 5412.694 1007.675, 5413.071 1007.258 C 5413.449 1006.841, 5424.242 982.087, 5437.054 952.250 L 5460.350 898 5566.936 898 L 5673.522 898 5697.009 952.626 C 5709.926 982.671, 5720.946 1007.425, 5721.498 1007.636 C 5722.049 1007.846, 5749.557 1007.902, 5782.627 1007.759 L 5842.755 1007.500 5732.587 752.500 L 5622.420 497.500 5567.274 497.242 C 5524.294 497.040, 5511.960 497.256, 5511.363 498.221 M 5882.667 497.667 C 5882.300 498.033, 5882 613.008, 5882 753.167 L 5882 1008 6048.500 1008 L 6215 1008 6215 957 L 6215 906 6106 906 L 5997 906 5997 701.500 L 5997 497 5940.167 497 C 5908.908 497, 5883.033 497.300, 5882.667 497.667 M 385.500 506.996 C 380.362 508.352, 374.690 511.831, 369.768 516.647 C 364.795 521.511, 358.990 530.737, 359.014 533.735 C 359.022 534.706, 358.074 538.436, 356.906 542.023 C 354.922 548.121, 354.886 548.790, 356.344 552.280 C 358.150 556.603, 361.819 558.444, 366.775 557.514 C 369.613 556.982, 370.415 556.118, 372.548 551.295 C 373.911 548.214, 375.308 543.850, 375.653 541.597 C 376.608 535.362, 380.610 529.248, 385.369 526.754 C 389.026 524.837, 391.605 524.526, 407.841 524.044 C 425.596 523.517, 426.243 523.425, 428.091 521.139 C 430.390 518.296, 430.566 513.253, 428.471 510.261 C 427.629 509.060, 425.267 507.613, 423.221 507.044 C 418.933 505.854, 389.971 505.817, 385.500 506.996 M 354.750 564.080 C 351.792 565.803, 349.712 571.153, 349.603 577.318 C 349.515 582.329, 349.839 583.444, 351.861 585.085 C 356.305 588.691, 363.037 586.882, 365.883 581.316 C 367.127 578.884, 367.381 568.116, 366.235 566.400 C 364.198 563.349, 358.115 562.120, 354.750 564.080 M 4515.500 586.676 C 4508.207 587.590, 4492.066 591.378, 4485.581 593.698 C 4466.704 600.451, 4450.795 610.480, 4435.133 625.500 C 4398.335 660.790, 4381.568 703.146, 4383.289 756.465 C 4383.863 774.273, 4385.266 784.059, 4389.437 799.354 C 4401.666 844.197, 4435.892 884.383, 4476.919 902.071 C 4494.812 909.785, 4511.743 913, 4534.473 913 C 4585.257 913, 4626.905 889.954, 4657.089 845.151 C 4677.918 814.233, 4687.418 775.956, 4684.252 735.709 C 4680.842 692.353, 4665.471 658.538, 4635.500 628.455 C 4612.118 604.986, 4587.332 592.141, 4556.500 587.513 C 4547.460 586.156, 4523.544 585.668, 4515.500 586.676 M 4993 649.413 L 4993 704 5025.250 703.998 C 5079.014 703.994, 5101.892 701.169, 5119.198 692.400 C 5128.354 687.760, 5135.199 678.353, 5138.126 666.385 C 5139.954 658.913, 5139.636 638.740, 5137.568 631 C 5133.206 614.666, 5124.760 606.275, 5107.488 601.114 C 5091.061 596.207, 5086.008 595.782, 5038.250 595.291 L 4993 594.826 4993 649.413 M 244.738 600.877 C 244.057 601.085, 242.488 602.176, 241.250 603.302 C 239.228 605.141, 239 606.281, 239 614.552 C 239 621.886, 239.335 624.034, 240.651 625.128 C 241.911 626.175, 247.465 626.576, 264.082 626.819 C 285.239 627.129, 285.923 627.077, 288.008 624.992 C 289.198 623.802, 289.897 622.175, 289.577 621.341 C 289.260 620.513, 289 616.955, 289 613.434 C 289 607.841, 288.652 606.653, 286.250 604.041 L 283.500 601.051 264.738 600.776 C 254.419 600.624, 245.419 600.670, 244.738 600.877 M 746.587 601.304 C 742.996 602.502, 741.273 607.377, 741.138 616.720 C 741.035 623.880, 741.268 625.073, 742.944 625.970 C 744.081 626.579, 753.096 627, 764.984 627 C 791.619 627, 792 626.815, 792 613.852 C 792 606.237, 791.094 603.656, 787.804 601.895 C 785.290 600.549, 750.350 600.048, 746.587 601.304 M 292.117 649.631 C 286.960 653.242, 286.999 652.648, 287.012 728.218 C 287.025 803.860, 287.057 804.377, 292.261 812.621 C 299.345 823.843, 310.575 828.971, 332.500 830.995 C 339.100 831.605, 345.850 832.482, 347.500 832.946 C 349.150 833.409, 357.025 834.308, 365 834.944 C 372.975 835.579, 382.200 836.505, 385.500 837 C 394.872 838.408, 414.495 839.907, 438.500 841.049 C 450.600 841.625, 466.350 842.503, 473.500 843.001 C 490.550 844.188, 539.766 844.156, 557.500 842.947 C 565.200 842.422, 584.100 841.313, 599.500 840.482 C 614.900 839.651, 631.325 838.529, 636 837.988 C 640.675 837.447, 649 836.568, 654.500 836.036 C 672.414 834.302, 682.416 833.098, 687 832.126 C 689.475 831.601, 695.775 830.863, 701 830.486 C 712.637 829.646, 723.093 826.700, 728.779 822.660 C 732.989 819.668, 739.015 811.721, 740.968 806.585 C 741.732 804.575, 742.397 709.908, 742.019 656.827 C 742.009 655.356, 740.835 652.769, 739.411 651.077 C 736.462 647.572, 732.813 647.096, 726.352 649.376 C 724.207 650.132, 719.099 651.088, 715 651.500 C 710.901 651.912, 705.951 652.811, 704.001 653.500 C 702.051 654.188, 697.540 655.074, 693.977 655.469 C 690.415 655.863, 681.650 657.229, 674.500 658.503 C 667.350 659.777, 657.450 661.111, 652.500 661.468 C 647.550 661.824, 641.250 662.734, 638.500 663.489 C 635.750 664.245, 627.650 665.147, 620.500 665.496 C 613.350 665.844, 602.775 666.783, 597 667.582 C 567.607 671.651, 464.410 671.928, 437 668.012 C 433.425 667.501, 423.525 666.599, 415 666.006 C 406.475 665.414, 397.475 664.445, 395 663.851 C 392.525 663.258, 384.650 662.172, 377.500 661.438 C 370.350 660.704, 359.550 659.216, 353.500 658.131 C 347.450 657.045, 339.585 655.841, 336.023 655.454 C 332.460 655.067, 327.949 654.188, 325.999 653.500 C 324.049 652.811, 319.129 651.915, 315.067 651.507 C 311.005 651.099, 306.193 650.143, 304.373 649.383 C 299.952 647.535, 294.965 647.636, 292.117 649.631 M 5566.409 652.500 C 5565.968 653.600, 5551.765 686.450, 5534.846 725.500 L 5504.086 796.500 5535.543 796.764 C 5552.844 796.909, 5581.114 796.909, 5598.365 796.764 L 5629.729 796.500 5599.395 725.500 C 5582.711 686.450, 5568.645 653.600, 5568.136 652.500 L 5567.212 650.500 5566.409 652.500 M 334 709.900 C 327.785 713.854, 324.379 717.790, 323.099 722.500 C 321.682 727.710, 321.684 762.323, 323.102 767.428 C 324.781 773.475, 329.446 778.543, 335.653 781.062 C 340.791 783.147, 342.508 783.264, 367.293 783.208 C 391.587 783.153, 393.839 782.997, 398.148 781.073 C 403.911 778.498, 408.227 773.697, 410.477 767.355 C 411.424 764.685, 412.843 760.925, 413.631 759 C 414.418 757.075, 415.695 753.250, 416.467 750.500 C 417.239 747.750, 418.555 743.700, 419.392 741.500 C 421.363 736.315, 421.482 722.824, 419.589 719.200 C 417.883 715.935, 413.767 712.074, 408.882 709.159 C 405.366 707.061, 404.318 707.001, 371.882 707.019 L 338.500 707.038 334 709.900 M 618.485 709.102 C 612.952 712.021, 609.708 715.292, 607.032 720.650 C 604.332 726.056, 604.584 733.277, 607.760 741.500 C 610.757 749.261, 613.003 756.036, 614.390 761.500 C 617.093 772.151, 622.227 778.734, 630.014 781.537 C 636.807 783.982, 683.876 783.928, 690.735 781.467 C 702.096 777.391, 706 768.018, 706 744.817 C 706 723.778, 703.008 715.340, 693.643 709.969 L 688.500 707.019 655.485 707.009 C 623.855 707, 622.303 707.088, 618.485 709.102 M 451.806 719.040 C 449.251 721.596, 448.868 722.591, 449.407 725.287 C 449.760 727.050, 450.950 729.395, 452.052 730.497 C 454.008 732.453, 455.539 732.506, 517.267 732.772 C 564.528 732.976, 581.207 732.743, 583.362 731.850 C 587.016 730.337, 589.384 725.140, 588.036 721.596 C 585.883 715.932, 586.735 716, 517.973 716 L 454.846 716 451.806 719.040 M 340.014 725.986 C 338.149 727.851, 338 729.292, 338 745.443 C 338 762.335, 338.070 762.936, 340.223 764.443 C 342.088 765.750, 346.394 766, 367 766 C 394.215 766, 395.302 765.770, 396.474 759.749 C 396.822 757.962, 397.704 754.925, 398.433 753 C 399.162 751.075, 401.181 745.099, 402.919 739.720 C 405.716 731.066, 405.930 729.626, 404.777 727.220 L 403.474 724.500 372.751 724.236 C 343.104 723.980, 341.958 724.042, 340.014 725.986 M 623 726 C 620.711 728.289, 620.497 730.203, 622.183 733.316 C 622.834 734.517, 624.154 738.200, 625.118 741.500 C 626.081 744.800, 627.792 750.613, 628.918 754.418 C 632.495 766.498, 631.129 766, 660.651 766 L 685.954 766 687.544 763.574 C 688.874 761.544, 689.082 758.381, 688.817 744.224 C 688.583 731.729, 688.141 726.869, 687.128 725.650 C 685.907 724.183, 682.389 724, 655.378 724 C 626.333 724, 624.912 724.088, 623 726 M 231.750 728.080 C 228.755 729.825, 227 734.597, 227 741 C 227 750.617, 230.420 755.115, 236.560 753.574 C 240.537 752.576, 241.976 749.180, 242.106 740.480 C 242.221 732.840, 242.126 732.502, 239.097 729.795 C 235.729 726.786, 234.474 726.493, 231.750 728.080 M 463.593 766.250 C 459.506 769.902, 459.254 773.408, 462.821 776.975 L 465.846 780 518.812 780 C 568.538 780, 571.916 779.889, 574.026 778.180 C 575.733 776.797, 576.273 775.314, 576.273 772 C 576.273 768.686, 575.733 767.203, 574.026 765.820 C 571.916 764.111, 568.543 764, 518.945 764 L 466.112 764 463.593 766.250 M 232.020 770.284 C 227.765 772.437, 227.030 775.410, 227.023 790.500 C 227.009 820.208, 231.280 836.066, 244.711 856.180 C 249.739 863.708, 260.007 874, 262.492 874 C 266.889 874, 271.720 867.843, 270.453 863.852 C 270.095 862.725, 267.674 859.452, 265.071 856.578 C 248.236 837.989, 241.533 817.564, 242.143 786.713 L 242.380 774.728 239.174 771.864 C 235.528 768.607, 235.394 768.577, 232.020 770.284 M 4993 852.998 L 4993 911.162 5047.750 910.715 C 5097.881 910.305, 5103.428 910.091, 5113.500 908.186 C 5134.921 904.135, 5147.153 899.056, 5155.075 890.923 C 5163.673 882.095, 5167.965 869.302, 5167.965 852.500 C 5167.965 835.214, 5163.366 822.357, 5154.072 813.664 C 5148.101 808.079, 5142.012 805.085, 5129.500 801.581 C 5110.424 796.238, 5103.684 795.727, 5046.250 795.263 L 4993 794.834 4993 852.998 M 1430.500 806.081 C 1422.800 806.492, 1414.090 807.430, 1411.144 808.164 C 1404.223 809.890, 1402.496 812.974, 1401.158 826 C 1399.811 839.101, 1397.181 857.212, 1395.494 865 C 1394.719 868.575, 1393.613 874.425, 1393.037 878 C 1392.460 881.575, 1391.328 886.975, 1390.522 890 C 1389.023 895.618, 1385.867 908.147, 1383.468 918 C 1382.253 922.991, 1380.537 928.741, 1374.964 946.500 C 1370.965 959.241, 1369.521 963.321, 1362.754 981 C 1361.597 984.025, 1358.703 991.087, 1356.325 996.694 C 1353.946 1002.301, 1352 1007.166, 1352 1007.506 C 1352 1007.845, 1347.537 1017.208, 1342.081 1028.312 C 1333.660 1045.451, 1327.988 1055.977, 1314.787 1078.958 C 1300.350 1104.091, 1266.349 1150.314, 1245.612 1173 C 1214.865 1206.635, 1191.940 1228.276, 1161 1252.872 C 1153.706 1258.670, 1136.453 1271.581, 1133.434 1273.500 C 1131.704 1274.600, 1127.027 1277.750, 1123.040 1280.500 C 1107.387 1291.299, 1086.580 1304.126, 1073 1311.347 C 1065.394 1315.392, 1035.445 1330.372, 1030.331 1332.689 C 1017.074 1338.697, 1014.074 1340, 1013.500 1340 C 1013.157 1340, 1010.542 1341.055, 1007.688 1342.345 C 1004.835 1343.634, 999.125 1345.932, 995 1347.451 C 990.875 1348.970, 985.475 1351.030, 983 1352.027 C 978.156 1353.979, 972.024 1356.061, 962.500 1358.987 C 935.434 1367.302, 934.525 1367.562, 917.500 1371.867 C 902.048 1375.774, 872.099 1381.613, 860.500 1382.980 C 855.550 1383.564, 849.155 1384.510, 846.289 1385.083 C 843.423 1385.657, 836.471 1386.483, 830.840 1386.919 C 821.976 1387.605, 820.413 1387.999, 819.180 1389.856 C 818.397 1391.035, 817.136 1392, 816.378 1392 C 815.620 1392, 815 1392.113, 815 1392.250 C 815 1392.388, 815.667 1395.651, 816.483 1399.500 C 817.298 1403.350, 817.973 1409.231, 817.983 1412.568 C 817.992 1415.906, 818.639 1420.856, 819.420 1423.568 C 820.201 1426.281, 821.358 1431.088, 821.991 1434.250 L 823.142 1440 834.371 1440 C 840.547 1440, 846.043 1439.557, 846.585 1439.015 C 847.127 1438.473, 851.991 1437.571, 857.395 1437.011 C 862.798 1436.451, 869.532 1435.349, 872.360 1434.562 C 875.187 1433.776, 880.875 1432.828, 885 1432.456 C 889.125 1432.084, 894.047 1431.142, 895.937 1430.363 C 897.827 1429.583, 903.832 1428.276, 909.281 1427.458 C 914.730 1426.639, 919.968 1425.552, 920.921 1425.042 C 921.874 1424.532, 925.094 1423.806, 928.077 1423.428 C 931.060 1423.050, 936.074 1421.674, 939.220 1420.370 C 942.366 1419.067, 946.061 1418, 947.432 1418 C 948.803 1418, 952.304 1417.142, 955.212 1416.093 C 958.121 1415.045, 962.279 1413.882, 964.453 1413.510 C 966.628 1413.138, 970.003 1412.031, 971.953 1411.052 C 973.904 1410.072, 977.249 1408.953, 979.386 1408.564 C 981.523 1408.176, 984.891 1406.990, 986.871 1405.929 C 988.851 1404.868, 991.256 1404, 992.215 1404 C 994.191 1404, 1004.957 1399.983, 1012.600 1396.395 C 1015.405 1395.078, 1018.567 1394, 1019.627 1394 C 1020.688 1394, 1022.443 1393.386, 1023.527 1392.635 C 1024.612 1391.884, 1026.625 1390.930, 1028 1390.515 C 1029.375 1390.100, 1033.425 1388.406, 1037 1386.751 C 1040.575 1385.097, 1045.525 1382.852, 1048 1381.764 C 1057.490 1377.590, 1067.008 1372.796, 1067.551 1371.917 C 1067.863 1371.413, 1068.879 1370.998, 1069.809 1370.995 C 1070.739 1370.993, 1074.425 1369.398, 1078 1367.451 C 1081.575 1365.505, 1086.300 1362.990, 1088.500 1361.862 C 1098.427 1356.776, 1114.529 1347.481, 1123 1341.948 C 1125.475 1340.331, 1128.636 1338.444, 1130.025 1337.754 C 1132.481 1336.534, 1149.391 1325.312, 1161.500 1316.866 C 1177.392 1305.781, 1194.752 1292.154, 1218.500 1272.121 C 1230.286 1262.178, 1272.561 1219.869, 1285.631 1204.934 C 1303.248 1184.803, 1327.686 1152.892, 1338.537 1135.846 C 1340.167 1133.286, 1344.136 1127.233, 1347.358 1122.395 C 1350.581 1117.557, 1353.460 1112.901, 1353.757 1112.049 C 1354.055 1111.197, 1355.062 1109.600, 1355.996 1108.500 C 1358.010 1106.128, 1368 1088.618, 1368 1087.460 C 1368 1087.019, 1368.621 1085.947, 1369.379 1085.079 C 1371.253 1082.934, 1383.321 1059.841, 1388.233 1049 C 1389.355 1046.525, 1390.872 1043.375, 1391.605 1042 C 1392.339 1040.625, 1393.457 1038.375, 1394.091 1037 C 1394.725 1035.625, 1396.314 1032.244, 1397.622 1029.486 C 1398.930 1026.728, 1400 1024.010, 1400 1023.447 C 1400 1022.884, 1400.900 1020.658, 1402 1018.500 C 1403.100 1016.342, 1404.014 1013.885, 1404.031 1013.039 C 1404.048 1012.192, 1405.171 1009.700, 1406.526 1007.500 C 1407.881 1005.300, 1408.992 1002.808, 1408.995 1001.961 C 1408.998 1001.115, 1409.900 998.658, 1411 996.500 C 1412.100 994.342, 1413 991.743, 1413 990.723 C 1413 989.703, 1413.530 987.886, 1414.177 986.684 C 1416.896 981.638, 1423.895 960.696, 1426.436 950 C 1427.155 946.975, 1428.473 943.150, 1429.365 941.500 C 1430.258 939.850, 1430.990 937.545, 1430.994 936.378 C 1430.997 935.210, 1432.125 930.809, 1433.500 926.597 C 1434.875 922.385, 1436 917.699, 1436 916.184 C 1436 914.670, 1436.900 910.870, 1438 907.740 C 1439.100 904.611, 1440 900.534, 1440 898.682 C 1440 896.829, 1440.888 892.732, 1441.973 889.578 C 1443.059 886.423, 1444.425 879.940, 1445.010 875.171 C 1445.594 870.402, 1446.546 864.656, 1447.124 862.402 C 1449.406 853.504, 1451.258 836.723, 1451.665 821.250 L 1452.093 805 1448.297 805.167 C 1446.208 805.259, 1438.200 805.670, 1430.500 806.081 M 78.459 846.362 C 76.506 849.150, 76.621 853.147, 78.910 862.062 C 79.960 866.153, 81.136 872.425, 81.522 876 C 81.909 879.575, 82.857 884.381, 83.628 886.679 C 84.400 888.977, 85.449 894.152, 85.961 898.179 C 86.472 902.206, 87.532 907.075, 88.316 909 C 89.100 910.925, 90.050 914.933, 90.426 917.906 C 90.802 920.880, 91.778 924.604, 92.594 926.181 C 93.410 927.759, 94.552 931.617, 95.132 934.755 C 95.712 937.892, 96.819 941.684, 97.593 943.180 C 98.367 944.676, 99.016 946.936, 99.036 948.200 C 99.056 949.465, 100.888 955.675, 103.107 962 C 105.325 968.325, 107.772 975.525, 108.543 978 C 111.418 987.225, 114.086 994.576, 115.455 997.040 C 116.231 998.438, 117.527 1001.363, 118.336 1003.540 C 120.517 1009.416, 124.988 1021.075, 126.372 1024.500 C 127.039 1026.150, 128.577 1029.075, 129.789 1031 C 131.001 1032.925, 131.994 1035.106, 131.996 1035.846 C 131.998 1036.586, 132.636 1038.386, 133.414 1039.846 C 134.192 1041.306, 136.679 1046.325, 138.941 1051 C 141.203 1055.675, 143.464 1060.175, 143.965 1061 C 144.467 1061.825, 146.409 1065.650, 148.280 1069.500 C 150.152 1073.350, 153.112 1078.895, 154.859 1081.823 C 156.605 1084.751, 158.692 1088.576, 159.497 1090.323 C 160.302 1092.070, 161.531 1094.376, 162.230 1095.446 C 166.384 1101.811, 172 1111.108, 172 1111.620 C 172 1112.956, 196.096 1148.383, 205.465 1160.822 C 222.186 1183.021, 223.298 1184.465, 229.506 1192.048 C 238.916 1203.543, 266.558 1233.303, 280.142 1246.564 C 305.023 1270.854, 339.609 1299.599, 364 1316.262 C 367.025 1318.329, 370.625 1320.863, 372 1321.895 C 375.385 1324.433, 391.309 1334.979, 395.841 1337.684 C 397.853 1338.885, 401.226 1340.910, 403.336 1342.184 C 405.446 1343.458, 408.371 1345.181, 409.836 1346.013 C 411.301 1346.844, 415.405 1349.296, 418.955 1351.459 C 432.709 1359.843, 477.062 1382, 485.797 1384.852 C 487.610 1385.444, 490.258 1386.845, 491.682 1387.964 C 493.105 1389.084, 495.222 1390.002, 496.385 1390.004 C 497.548 1390.006, 499.973 1390.906, 501.774 1392.004 C 503.575 1393.102, 505.819 1394, 506.760 1394 C 507.701 1394, 510.728 1395.068, 513.486 1396.373 C 521.704 1400.261, 531.886 1404, 534.270 1404.004 C 535.496 1404.006, 537.859 1404.836, 539.520 1405.849 C 541.181 1406.862, 544.311 1408.023, 546.474 1408.429 C 548.637 1408.835, 552.017 1409.988, 553.985 1410.992 C 555.953 1411.996, 560.138 1413.294, 563.285 1413.876 C 566.432 1414.457, 569.805 1415.360, 570.780 1415.882 C 571.755 1416.404, 575.411 1417.349, 578.906 1417.983 C 582.400 1418.617, 586.882 1420.005, 588.865 1421.067 C 590.848 1422.130, 593.892 1423, 595.630 1423 C 597.368 1423, 601.649 1423.874, 605.145 1424.942 C 608.640 1426.010, 614.425 1427.196, 618 1427.578 C 621.575 1427.961, 626.525 1429.058, 629 1430.016 C 631.475 1430.975, 636.875 1432.084, 641 1432.481 C 645.125 1432.878, 651.920 1434.008, 656.100 1434.991 C 664.832 1437.047, 668.804 1436.653, 669.947 1433.619 C 670.742 1431.511, 671.491 1407.650, 671.169 1394.719 C 671.033 1389.281, 670.653 1387.804, 669.250 1387.267 C 668.288 1386.899, 666.825 1385.801, 666 1384.828 C 665.129 1383.801, 661.983 1382.636, 658.500 1382.050 C 646.417 1380.019, 625.393 1376.027, 621.500 1375.025 C 616.967 1373.858, 603.218 1370.463, 595 1368.481 C 587.995 1366.791, 571.693 1361.872, 562 1358.524 C 557.875 1357.099, 552.475 1355.302, 550 1354.531 C 544.116 1352.697, 532.337 1348.306, 528.349 1346.459 C 526.616 1345.657, 524.891 1345, 524.516 1345 C 524.142 1345, 520.610 1343.623, 516.668 1341.939 C 512.725 1340.255, 506.800 1337.728, 503.500 1336.322 C 492.912 1331.811, 460.812 1315.837, 450.764 1310.079 C 445.409 1307.011, 439.750 1303.808, 438.189 1302.962 C 430.962 1299.049, 406.541 1283.333, 392 1273.239 C 346.356 1241.553, 297.586 1195.698, 260.850 1149.927 C 223.832 1103.806, 191.777 1050.728, 171.513 1002 C 170.026 998.425, 168.200 994.150, 167.454 992.500 C 164.147 985.181, 154.486 958.584, 150.019 944.500 C 144.966 928.570, 141.991 918.527, 141.996 917.418 C 141.998 916.824, 141.143 913.449, 140.095 909.918 C 138.024 902.942, 134.422 886.851, 131.046 869.500 C 129.869 863.450, 128.175 855.290, 127.282 851.366 L 125.657 844.232 102.788 844.256 C 80.762 844.279, 79.864 844.356, 78.459 846.362 M 411.985 1028.250 C 409.377 1029.572, 406.731 1031.918, 405.572 1033.937 C 402.256 1039.709, 403.130 1045.370, 410.518 1066 C 414.162 1076.175, 417.978 1086.975, 418.999 1090 C 429.189 1120.211, 441.488 1153.230, 443.751 1156.452 C 452.411 1168.779, 471.200 1167.330, 478.101 1153.802 C 479.208 1151.632, 486.191 1132.676, 493.618 1111.678 C 501.046 1090.680, 508.615 1069.450, 510.438 1064.500 C 517.599 1045.057, 518.308 1040.100, 514.816 1033.886 C 512.547 1029.850, 506.366 1026, 502.152 1026 C 498.831 1026, 493.797 1028.420, 491.154 1031.287 C 489.497 1033.086, 484.868 1046.112, 475.386 1075.666 C 460.006 1123.598, 461.077 1120.410, 460.543 1119.876 C 460.318 1119.651, 457.153 1110.249, 453.511 1098.983 C 430.006 1026.284, 431.737 1030.693, 425.606 1027.909 C 420.210 1025.458, 417.351 1025.530, 411.985 1028.250 M 571.500 1027.499 C 558.579 1030.386, 550.621 1034.421, 542.245 1042.335 C 529.115 1054.740, 521.999 1073.452, 522.029 1095.500 C 522.074 1129.595, 538.466 1155.522, 564.500 1162.675 C 572.881 1164.978, 588.445 1165.427, 597 1163.613 C 605.873 1161.731, 615.455 1157.112, 621.471 1151.817 C 634.229 1140.586, 640.880 1120.053, 634.720 1110.912 C 633.466 1109.052, 631.328 1106.967, 629.970 1106.279 C 626.404 1104.475, 618.891 1104.695, 615.973 1106.690 C 612.924 1108.773, 612.373 1109.653, 608.311 1118.922 C 602.492 1132.202, 595.357 1137.405, 583 1137.380 C 571.166 1137.355, 563.308 1132.612, 558.650 1122.682 C 554.695 1114.250, 553.702 1107.644, 554.251 1093.410 C 554.871 1077.346, 557.050 1070.385, 563.817 1062.858 C 569.852 1056.147, 574.547 1054.044, 583.500 1054.044 C 595.349 1054.044, 600.249 1057.391, 608.204 1070.917 C 613.324 1079.622, 616.191 1082.047, 622.136 1082.698 C 625.586 1083.076, 627.233 1082.682, 630 1080.818 C 639.041 1074.727, 639.214 1062.695, 630.452 1049.494 C 618.974 1032.202, 593.311 1022.627, 571.500 1027.499 M 740.500 1027.965 C 727.555 1030.764, 716.797 1036.478, 708.716 1044.849 C 696.622 1057.376, 691.007 1073.461, 691.003 1095.590 C 690.998 1119.967, 698.335 1138.142, 713.232 1150.657 C 731.238 1165.784, 761.453 1169.235, 787.500 1159.139 C 799.022 1154.673, 807.819 1149.196, 810.891 1144.574 C 813.404 1140.794, 813.513 1140.019, 813.856 1123.585 C 814.278 1103.324, 813.276 1097.252, 808.905 1093.574 C 804.319 1089.714, 799.917 1089.010, 780.500 1089.028 C 765.140 1089.042, 761.902 1089.315, 758.424 1090.895 C 751.348 1094.109, 749.067 1102.874, 753.532 1109.689 C 756.192 1113.750, 760.778 1115, 773.008 1115 L 784.081 1115 783.790 1123.227 L 783.500 1131.455 776 1134.396 C 765.598 1138.476, 752.107 1139.169, 743.823 1136.049 C 737.592 1133.702, 730.975 1127.832, 728.011 1122.021 C 721.290 1108.847, 720.504 1088.419, 726.138 1073.360 C 729.196 1065.189, 737.657 1056.773, 745.013 1054.589 C 751.112 1052.777, 758.826 1052.546, 764.118 1054.016 C 770.011 1055.653, 774.197 1059.134, 779.500 1066.808 C 785.569 1075.590, 788.909 1077.985, 795.102 1077.993 C 803.154 1078.005, 809.995 1071.252, 809.998 1063.288 C 810.003 1053.215, 799.271 1038.688, 787.646 1033.033 C 773.925 1026.358, 756.562 1024.492, 740.500 1027.965 M 837.394 1027.861 C 834.366 1029.271, 832.725 1030.936, 831.144 1034.202 C 829.029 1038.572, 829 1039.399, 829 1095.604 L 829 1152.576 831.250 1156.964 C 836.671 1167.536, 850.254 1167.499, 856.500 1156.895 C 858.438 1153.605, 858.500 1151.702, 858.500 1095.500 C 858.500 1039.298, 858.438 1037.395, 856.500 1034.105 C 852.274 1026.930, 844.706 1024.457, 837.394 1027.861 M 986.071 1027.698 C 984.185 1028.689, 981.710 1030.770, 980.571 1032.323 C 978.540 1035.091, 978.495 1036.271, 978.219 1094.109 C 977.948 1151.121, 978.005 1153.222, 979.928 1157.570 C 981.443 1160.995, 982.813 1162.442, 985.673 1163.637 C 992.734 1166.587, 1000.652 1163.895, 1003.697 1157.508 L 1005.316 1154.114 1009.299 1157.524 C 1015.118 1162.505, 1021.791 1164.504, 1032.500 1164.477 C 1040.110 1164.457, 1042.383 1164.043, 1047.218 1161.797 C 1063.733 1154.123, 1073.086 1136.098, 1073.055 1112 C 1073.026 1089.111, 1064.738 1073.036, 1049.159 1065.655 C 1042.929 1062.703, 1041.791 1062.501, 1031.500 1062.521 C 1019.998 1062.544, 1016.909 1063.450, 1008.750 1069.199 L 1006 1071.136 1005.978 1054.818 C 1005.959 1040.970, 1005.669 1037.869, 1004.062 1034.328 C 1000.768 1027.074, 992.826 1024.147, 986.071 1027.698 M 1194.424 1027.842 C 1191.627 1029.149, 1189.745 1030.963, 1188.424 1033.623 C 1186.605 1037.288, 1186.485 1040.563, 1186.218 1093.383 C 1185.975 1141.365, 1186.153 1150.016, 1187.478 1154.572 C 1189.514 1161.577, 1193.400 1164.500, 1200.677 1164.500 C 1206.622 1164.500, 1210.309 1162.313, 1213.500 1156.895 C 1215.437 1153.606, 1215.500 1151.702, 1215.500 1096 C 1215.500 1040.478, 1215.431 1038.365, 1213.500 1034.565 C 1209.623 1026.936, 1202.065 1024.272, 1194.424 1027.842 M 306 1030.752 C 303.722 1031.889, 301.714 1034.058, 300.250 1036.962 L 298 1041.424 298.022 1095.462 C 298.042 1145.754, 298.171 1149.777, 299.881 1153.500 C 304.122 1162.736, 305.465 1162.988, 350.500 1162.993 C 391.165 1162.997, 391.863 1162.902, 396.371 1156.754 C 398.932 1153.262, 399.095 1145.321, 396.683 1141.639 C 392.859 1135.803, 391.217 1135.524, 359 1135.236 L 329.500 1134.972 329.224 1120.531 L 328.947 1106.091 356.402 1105.795 C 382.440 1105.515, 384.003 1105.392, 386.679 1103.409 C 388.230 1102.260, 390.161 1099.447, 390.969 1097.159 C 392.261 1093.501, 392.261 1092.499, 390.969 1088.841 C 390.161 1086.553, 388.231 1083.740, 386.679 1082.591 C 384.024 1080.623, 382.261 1080.471, 356.679 1080 L 329.500 1079.500 329.219 1067.250 L 328.938 1055 357.735 1055 C 383.714 1055, 386.865 1054.821, 389.938 1053.173 C 396.761 1049.513, 398.833 1040.293, 394.227 1034.087 C 390.503 1029.069, 390.151 1029.030, 348.500 1029.016 C 313.355 1029.004, 309.154 1029.176, 306 1030.752 M 904.754 1063.084 C 898.365 1064.590, 888.960 1069.943, 884.120 1074.828 C 872.273 1086.784, 867.296 1107.571, 871.514 1127.483 C 877.250 1154.564, 901.725 1169.580, 930.270 1163.531 C 944.558 1160.503, 955.431 1151.856, 961.497 1138.697 C 965.927 1129.086, 967.387 1121.034, 966.751 1109.725 C 965.449 1086.593, 953.612 1069.976, 934.156 1063.967 C 927.307 1061.851, 911.940 1061.390, 904.754 1063.084 M 1110 1063.309 C 1094.704 1067.647, 1085.277 1077.047, 1084.293 1088.940 C 1083.838 1094.440, 1085.375 1097.662, 1089.912 1100.720 C 1096.284 1105.014, 1103.516 1103.389, 1107.381 1096.793 C 1108.771 1094.422, 1111.520 1090.919, 1113.491 1089.008 C 1116.823 1085.779, 1117.601 1085.509, 1124.563 1085.157 C 1135.749 1084.592, 1139.196 1086.744, 1140.202 1094.918 C 1140.548 1097.727, 1141.191 1097.492, 1120.500 1102.119 C 1097.450 1107.273, 1094.439 1108.430, 1088.414 1114.456 C 1081.929 1120.940, 1079.476 1127.887, 1080.253 1137.564 C 1082.345 1163.630, 1114.610 1173.578, 1140.465 1156.128 L 1144.804 1153.200 1147.872 1157.472 C 1155.056 1167.474, 1166.782 1167.129, 1172.466 1156.748 C 1174.431 1153.158, 1174.431 1153.155, 1172.200 1143.829 C 1170.308 1135.923, 1169.967 1131.679, 1169.964 1116 C 1169.957 1081.394, 1166.637 1072.223, 1151.637 1065.367 C 1145.870 1062.731, 1144.567 1062.546, 1130 1062.297 C 1119.686 1062.121, 1112.994 1062.460, 1110 1063.309 M 911.500 1087.356 C 907.402 1089.253, 904.513 1092.597, 901.863 1098.512 C 900.017 1102.632, 899.632 1105.267, 899.650 1113.654 C 899.669 1122.656, 899.981 1124.442, 902.398 1129.380 C 908.323 1141.491, 921.062 1144.227, 930.160 1135.343 C 935.106 1130.515, 937.002 1124.334, 936.994 1113.068 C 936.986 1100.382, 934.424 1093.590, 927.791 1088.678 C 924.369 1086.142, 915.650 1085.435, 911.500 1087.356 M 1019.500 1087.515 C 1014.784 1090.058, 1012.344 1092.793, 1009.834 1098.348 C 1006.689 1105.312, 1006.440 1122.366, 1009.397 1128.320 C 1015.602 1140.814, 1027.935 1143.579, 1036.703 1134.443 C 1041.859 1129.070, 1043.373 1124.203, 1043.373 1113 C 1043.373 1101.763, 1041.812 1096.743, 1036.605 1091.232 C 1032.905 1087.316, 1031.731 1086.687, 1027.431 1086.319 C 1024.102 1086.035, 1021.525 1086.423, 1019.500 1087.515 M 1126.167 1122.014 C 1114.342 1124.928, 1110.713 1127.024, 1109.563 1131.603 C 1108.041 1137.671, 1115.581 1143.835, 1122.912 1142.516 C 1133.271 1140.652, 1139.223 1134.495, 1140.568 1124.250 C 1141.396 1117.949, 1142.173 1118.070, 1126.167 1122.014" stroke="none" fill="#12c764" fill-rule="evenodd"/></svg>